<?xml version="1.0" encoding="utf-8"?>
<!-- Generator: Adobe Illustrator 23.0.3, SVG Export Plug-In . SVG Version: 6.00 Build 0)  -->
<svg version="1.1" xmlns="http://www.w3.org/2000/svg" xmlns:xlink="http://www.w3.org/1999/xlink" x="0px" y="0px"
	 viewBox="0 0 923.3 647.3" style="enable-background:new 0 0 923.3 647.3;" xml:space="preserve">
<style type="text/css">
	.st0{display:none;}
	.st1{display:inline;fill:#A17972;}
	.st2{display:inline;fill:#7D5051;}
	.st3{display:inline;fill:#41221E;}
	.st4{display:inline;fill:#C33936;}
	.st5{display:inline;fill:#C75563;}
	.st6{display:inline;fill:#CD6E75;}
	.st7{display:inline;fill:#C02D45;}
	.st8{display:inline;fill:#C6526D;}
	.st9{display:inline;fill:#D2818E;}
	.st10{display:inline;fill:#D07989;}
	.st11{display:inline;fill:#9D7F78;}
	.st12{display:inline;fill:#CD6E77;}
	.st13{display:inline;fill:#AB8477;}
	.st14{fill:#CB9338;}
</style>
<g id="ROSADAS__x28_CORRECTAS_x29_">
</g>
<g id="Capa_1" class="st0">
	
		<image style="display:inline;overflow:visible;" width="478" height="469" xlink:href="../../../../../../../Users/user/Desktop/TESIS/imagenes_Ishihara/17.png"  transform="matrix(1 0 0 1 -1337.4418 1091.067)">
	</image>
	<circle class="st1" cx="-763.6" cy="1062" r="27.6"/>
	<circle class="st2" cx="-763.6" cy="1128.2" r="27.6"/>
	<circle class="st3" cx="-763.6" cy="1194.4" r="27.6"/>
	<circle class="st4" cx="-763.6" cy="1260.6" r="27.6"/>
	<circle class="st5" cx="-763.6" cy="1326.8" r="27.6"/>
	<circle class="st6" cx="-763.6" cy="1387" r="27.6"/>
	<circle class="st7" cx="-763.6" cy="1453.2" r="27.6"/>
	<circle class="st8" cx="-763.6" cy="1519.4" r="27.6"/>
	<circle class="st9" cx="-763.6" cy="1585.6" r="27.6"/>
	<circle class="st10" cx="-989.8" cy="1218.1" r="11.9"/>
	<circle class="st11" cx="-962.1" cy="1196.1" r="9.6"/>
	<circle class="st12" cx="-1130.8" cy="1282" r="8.8"/>
	<circle class="st13" cx="-1098.4" cy="1272.3" r="11.7"/>
</g>
<g id="CAFE_x5F_OSCURO">
</g>
<g id="CAFE">
</g>
<g id="CAFE_x5F_BAJO">
</g>
<g id="PUNTOS">
	<path class="st14" d="M814.1,562.2C656.3,670.9,148.1,655.8,51,490.6c-48.2-82,9.6-310.1,82.4-371.3
		C268.3,5.5,715.1-31.3,838.8,94.6C920.8,178.1,910.6,495.8,814.1,562.2z"/>
</g>
</svg>
