<?xml version="1.0" encoding="utf-8"?>
<!-- Generator: Adobe Illustrator 23.0.3, SVG Export Plug-In . SVG Version: 6.00 Build 0)  -->
<svg version="1.1" id="Capa_1" xmlns="http://www.w3.org/2000/svg" xmlns:xlink="http://www.w3.org/1999/xlink" x="0px" y="0px"
	 viewBox="0 0 563.7 595.3" style="enable-background:new 0 0 563.7 595.3;" xml:space="preserve">
<style type="text/css">
	.st0CirculoAlien{clip-path:url(#SVGID_2_CIRCULO_ALIEN);}
</style>
<ellipse class="st0CirculoAlien" id="SVGID_1_CIRCULO_ALIEN" transform="matrix(0.7071 -0.7071 0.7071 0.7071 -125.333 291.9006)" cx="289.7" cy="297.2" rx="291.8" ry="259.2"/>
<g>
	<g>
		<defs>
			<ellipse id="SVGID_1_CIRCULO_ALIEN" transform="matrix(0.7071 -0.7071 0.7071 0.7071 -125.333 291.9006)" cx="289.7" cy="297.2" rx="291.8" ry="259.2"/>
		</defs>
		<clipPath id="SVGID_2_CIRCULO_ALIEN">
			<use xlink:href="#SVGID_1_CIRCULO_ALIEN"  style="overflow:visible;"/>
		</clipPath>
		<g class="st0CirculoAlien">
			<g>
				<circle class="st1CirculoAlien" cx="537.4" cy="218.2" r="20.7"/>
				<circle class="st1CirculoAlien" cx="111.2" cy="466.8" r="20.7"/>
				<circle class="st1CirculoAlien" cx="408.2" cy="300.8" r="27.6"/>
				<circle class="st1CirculoAlien" cx="363.5" cy="18.2" r="27.6"/>
				<circle class="st1CirculoAlien" cx="111.9" cy="367.2" r="20.7"/>
				<circle class="st1CirculoAlien" cx="213" cy="267.6" r="20.7"/>
				<circle class="st1CirculoAlien" cx="463.4" cy="307.1" r="20.7"/>
				<circle class="st1CirculoAlien" cx="300.7" cy="319.5" r="20.7"/>
				<circle class="st1CirculoAlien" cx="282.4" cy="224.4" r="20.7"/>
				<circle class="st1CirculoAlien" cx="70.5" cy="301.6" r="27.6"/>
				<circle class="st1CirculoAlien" cx="233.7" cy="184.6" r="8"/>
				<circle class="st1CirculoAlien" cx="290.4" cy="532.2" r="10.3"/>
				<circle class="st1CirculoAlien" cx="280" cy="466.8" r="10.3"/>
				<circle class="st1CirculoAlien" cx="270" cy="513.4" r="12.3"/>
				<circle class="st1CirculoAlien" cx="257.7" cy="341.5" r="12.3"/>
				<circle class="st1CirculoAlien" cx="191.4" cy="232.2" r="12.3"/>
				<circle class="st1CirculoAlien" cx="70.5" cy="193.2" r="12.3"/>
				<circle class="st1CirculoAlien" cx="222.3" cy="332.5" r="12.3"/>
				<circle class="st1CirculoAlien" cx="209.9" cy="205.6" r="12.3"/>
				<circle class="st1CirculoAlien" cx="319.4" cy="267.6" r="12.3"/>
				<circle class="st1CirculoAlien" cx="343.7" cy="361.4" r="11.1"/>
				<circle class="st1CirculoAlien" cx="463.4" cy="189.4" r="11.1"/>
				<circle class="st1CirculoAlien" cx="314.1" cy="203.7" r="11.1"/>
				<circle class="st1CirculoAlien" cx="408.2" cy="176.1" r="11.1"/>
				<circle class="st1CirculoAlien" cx="371.8" cy="326" r="6.5"/>
				<circle class="st1CirculoAlien" cx="452.3" cy="217.9" r="6.5"/>
				<circle class="st1CirculoAlien" cx="435.8" cy="176.1" r="6.5"/>
				<circle class="st1CirculoAlien" cx="484.1" cy="180.9" r="6.5"/>
				<circle class="st1CirculoAlien" cx="259.7" cy="93.6" r="6.5"/>
				<circle class="st1CirculoAlien" cx="296.2" cy="100.1" r="18.6"/>
				<circle class="st1CirculoAlien" cx="477.6" cy="156.8" r="6.5"/>
				<circle class="st1CirculoAlien" cx="139" cy="211.4" r="6.5"/>
				<circle class="st1CirculoAlien" cx="67.5" cy="415.1" r="6.5"/>
				<circle class="st1CirculoAlien" cx="233.1" cy="353.8" r="6.5"/>
				<circle class="st1CirculoAlien" cx="339.2" cy="473.2" r="6.5"/>
				<circle class="st1CirculoAlien" cx="474.5" cy="431.2" r="6.5"/>
				<circle class="st1CirculoAlien" cx="387.1" cy="384.4" r="6.5"/>
				<circle class="st1CirculoAlien" cx="340.6" cy="382.9" r="7.9"/>
				<circle class="st1CirculoAlien" cx="217.9" cy="232.2" r="7.9"/>
				<circle class="st1CirculoAlien" cx="280.2" cy="437.7" r="11.1"/>
				<circle class="st1CirculoAlien" cx="339.2" cy="203.7" r="11.1"/>
			</g>
			<g>
				<circle class="st2CirculoAlien" cx="168.2" cy="297.2" r="20.7"/>
				<circle class="st2CirculoAlien" cx="119" cy="322.3" r="20.7"/>
				<circle class="st2CirculoAlien" cx="378.3" cy="546.4" r="20.7"/>
				<circle class="st2CirculoAlien" cx="493.1" cy="213.1" r="20.7"/>
				<circle class="st2CirculoAlien" cx="447.4" cy="415.3" r="20.7"/>
				<circle class="st2CirculoAlien" cx="348.5" cy="438.9" r="20.7"/>
				<circle class="st2CirculoAlien" cx="241.1" cy="573.3" r="20.7"/>
				<circle class="st2CirculoAlien" cx="70.5" cy="487.4" r="20.7"/>
				<circle class="st2CirculoAlien" cx="184.9" cy="513.6" r="20.7"/>
				<circle class="st2CirculoAlien" cx="132.6" cy="133.1" r="27.6"/>
				<circle class="st2CirculoAlien" cx="368.3" cy="77.9" r="27.6"/>
				<circle class="st2CirculoAlien" cx="520.7" cy="274" r="27.6"/>
				<circle class="st2CirculoAlien" cx="380.7" cy="487.4" r="27.6"/>
				<circle class="st2CirculoAlien" cx="56" cy="366" r="27.6"/>
				<circle class="st2CirculoAlien" cx="451.3" cy="359.7" r="27.6"/>
				<circle class="st2CirculoAlien" cx="451.3" cy="135.6" r="27.6"/>
				<circle class="st2CirculoAlien" cx="242.6" cy="132.2" r="20.7"/>
				<circle class="st2CirculoAlien" cx="493.1" cy="103.9" r="20.7"/>
				<circle class="st2CirculoAlien" cx="241.1" cy="54.7" r="20.7"/>
				<circle class="st2CirculoAlien" cx="111.2" cy="201.7" r="20.7"/>
				<circle class="st2CirculoAlien" cx="28.4" cy="268.7" r="20.7"/>
				<circle class="st2CirculoAlien" cx="98.1" cy="412.4" r="20.7"/>
				<circle class="st2CirculoAlien" cx="209.9" cy="470.4" r="20.7"/>
				<circle class="st2CirculoAlien" cx="406.3" cy="238.9" r="20.7"/>
				<circle class="st2CirculoAlien" cx="125.9" cy="522.2" r="27.6"/>
				<circle class="st2CirculoAlien" cx="111.2" cy="257.7" r="27.6"/>
				<circle class="st2CirculoAlien" cx="184.9" cy="78.2" r="27.6"/>
				<circle class="st2CirculoAlien" cx="264.2" cy="545.4" r="9.4"/>
				<circle class="st2CirculoAlien" cx="277.5" cy="491" r="9.4"/>
				<circle class="st2CirculoAlien" cx="331.2" cy="408.1" r="9.4"/>
				<circle class="st2CirculoAlien" cx="209.9" cy="402.7" r="9.4"/>
				<circle class="st2CirculoAlien" cx="212.9" cy="164" r="15.2"/>
				<circle class="st2CirculoAlien" cx="182.5" cy="398.2" r="8.5"/>
				<circle class="st2CirculoAlien" cx="339.2" cy="496.8" r="8.5"/>
				<circle class="st2CirculoAlien" cx="235.5" cy="96.1" r="10.7"/>
				<circle class="st2CirculoAlien" cx="377.9" cy="160.7" r="12.3"/>
				<circle class="st2CirculoAlien" cx="360.9" cy="189.4" r="12.3"/>
				<circle class="st2CirculoAlien" cx="270" cy="530.9" r="3.6"/>
				<circle class="st2CirculoAlien" cx="234.9" cy="493" r="3.6"/>
				<circle class="st2CirculoAlien" cx="183.2" cy="364.1" r="12.3"/>
				<circle class="st2CirculoAlien" cx="365.3" cy="379.1" r="12.3"/>
				<circle class="st2CirculoAlien" cx="260.1" cy="368.8" r="12.3"/>
				<circle class="st2CirculoAlien" cx="91.2" cy="164" r="12.3"/>
				<circle class="st2CirculoAlien" cx="151.4" cy="232.2" r="12.3"/>
				<circle class="st2CirculoAlien" cx="318.3" cy="177.1" r="12.3"/>
				<circle class="st2CirculoAlien" cx="259.9" cy="172.4" r="12.3"/>
				<circle class="st2CirculoAlien" cx="156.9" cy="375" r="12.3"/>
				<circle class="st2CirculoAlien" cx="295.7" cy="579.4" r="12.3"/>
				<circle class="st2CirculoAlien" cx="302" cy="455.5" r="12.3"/>
				<circle class="st2CirculoAlien" cx="395.3" cy="343.6" r="11.1"/>
				<circle class="st2CirculoAlien" cx="543.4" cy="315" r="11.1"/>
				<circle class="st2CirculoAlien" cx="319.7" cy="516.4" r="11.1"/>
				<circle class="st2CirculoAlien" cx="237" cy="451.8" r="8.6"/>
				<circle class="st2CirculoAlien" cx="274.6" cy="389.6" r="8.6"/>
				<circle class="st2CirculoAlien" cx="419.3" cy="505.3" r="11.1"/>
				<circle class="st2CirculoAlien" cx="348.5" cy="516.4" r="11.1"/>
				<circle class="st2CirculoAlien" cx="537.4" cy="181.4" r="11.1"/>
				<circle class="st2CirculoAlien" cx="246.2" cy="246.4" r="11.1"/>
				<circle class="st2CirculoAlien" cx="241.9" cy="288.6" r="11.1"/>
				<circle class="st2CirculoAlien" cx="520.7" cy="382.9" r="11.1"/>
				<circle class="st2CirculoAlien" cx="390.3" cy="201.7" r="11.1"/>
				<circle class="st2CirculoAlien" cx="162.4" cy="343.6" r="11.1"/>
				<circle class="st2CirculoAlien" cx="189.2" cy="421.6" r="11.1"/>
				<circle class="st2CirculoAlien" cx="247.8" cy="391.7" r="6.5"/>
				<circle class="st2CirculoAlien" cx="200.5" cy="322.3" r="6.5"/>
				<circle class="st2CirculoAlien" cx="321.9" cy="371.8" r="6.5"/>
				<circle class="st2CirculoAlien" cx="241.9" cy="326.1" r="6.5"/>
				<circle class="st2CirculoAlien" cx="423.8" cy="264.1" r="6.5"/>
				<circle class="st2CirculoAlien" cx="287.5" cy="371.8" r="6.5"/>
				<circle class="st2CirculoAlien" cx="401.4" cy="152.8" r="6.5"/>
				<circle class="st2CirculoAlien" cx="314.3" cy="288.6" r="6.5"/>
				<circle class="st2CirculoAlien" cx="252.1" cy="270.6" r="6.5"/>
				<circle class="st2CirculoAlien" cx="493.1" cy="301.6" r="6.5"/>
				<circle class="st2CirculoAlien" cx="353" cy="219.9" r="6.5"/>
				<circle class="st2CirculoAlien" cx="340.6" cy="259.6" r="6.5"/>
				<circle class="st2CirculoAlien" cx="421.3" cy="394" r="6.5"/>
				<circle class="st2CirculoAlien" cx="359.5" cy="310.4" r="6.5"/>
				<circle class="st2CirculoAlien" cx="268.1" cy="322.3" r="6.5"/>
				<circle class="st2CirculoAlien" cx="421.3" cy="428.8" r="6.5"/>
				<circle class="st2CirculoAlien" cx="340.6" cy="338.5" r="6.5"/>
				<circle class="st2CirculoAlien" cx="265.9" cy="301.6" r="6.5"/>
				<circle class="st2CirculoAlien" cx="318.3" cy="426.6" r="6.5"/>
				<circle class="st2CirculoAlien" cx="138.1" cy="295.1" r="6.5"/>
				<circle class="st2CirculoAlien" cx="67.8" cy="259.6" r="6.5"/>
				<circle class="st2CirculoAlien" cx="342.1" cy="173" r="6.5"/>
				<circle class="st2CirculoAlien" cx="274.6" cy="190.7" r="6.5"/>
				<circle class="st2CirculoAlien" cx="168.2" cy="436" r="6.5"/>
				<circle class="st2CirculoAlien" cx="234.9" cy="375.2" r="6.5"/>
				<circle class="st2CirculoAlien" cx="184.9" cy="328.7" r="6.5"/>
				<circle class="st2CirculoAlien" cx="235.5" cy="164.7" r="6.5"/>
				<circle class="st2CirculoAlien" cx="368.3" cy="213.1" r="6.5"/>
				<circle class="st2CirculoAlien" cx="302" cy="246.4" r="6.5"/>
				<circle class="st2CirculoAlien" cx="241.9" cy="310.4" r="6.5"/>
				<circle class="st2CirculoAlien" cx="385.7" cy="445.4" r="6.5"/>
				<circle class="st2CirculoAlien" cx="404" cy="445.4" r="6.5"/>
				<circle class="st2CirculoAlien" cx="188.9" cy="445.4" r="6.5"/>
				<circle class="st2CirculoAlien" cx="144.6" cy="351.8" r="6.5"/>
				<circle class="st2CirculoAlien" cx="125.2" cy="171.4" r="6.5"/>
				<circle class="st2CirculoAlien" cx="268.2" cy="114.5" r="6.5"/>
				<circle class="st2CirculoAlien" cx="90.5" cy="342.9" r="6.5"/>
				<circle class="st2CirculoAlien" cx="125.2" cy="433.1" r="6.5"/>
				<circle class="st2CirculoAlien" cx="52.3" cy="408.1" r="6.5"/>
				<circle class="st2CirculoAlien" cx="486.6" cy="375.2" r="6.5"/>
			</g>
			<g>
				<circle class="st3CirculoAlien" cx="147.6" cy="408.3" r="20.7"/>
				<circle class="st3CirculoAlien" cx="283.1" cy="272.8" r="20.7"/>
				<circle class="st3CirculoAlien" cx="14.7" cy="319.5" r="20.7"/>
				<circle class="st3CirculoAlien" cx="395.3" cy="415.3" r="20.7"/>
				<circle class="st3CirculoAlien" cx="493.1" cy="408.1" r="20.7"/>
				<circle class="st3CirculoAlien" cx="486.1" cy="459.6" r="20.7"/>
				<circle class="st3CirculoAlien" cx="509.8" cy="158.5" r="20.7"/>
				<circle class="st3CirculoAlien" cx="230.6" cy="525.7" r="20.7"/>
				<circle class="st3CirculoAlien" cx="56" cy="444.9" r="20.7"/>
				<circle class="st3CirculoAlien" cx="156.9" cy="465.6" r="20.7"/>
				<circle class="st3CirculoAlien" cx="435.8" cy="466.8" r="27.6"/>
				<circle class="st3CirculoAlien" cx="178.1" cy="563.8" r="27.6"/>
				<circle class="st3CirculoAlien" cx="458.5" cy="255.7" r="27.6"/>
				<circle class="st3CirculoAlien" cx="509.8" cy="338.5" r="27.6"/>
				<circle class="st3CirculoAlien" cx="430.9" cy="78.2" r="27.6"/>
				<circle class="st3CirculoAlien" cx="56" cy="230.6" r="20.7"/>
				<circle class="st3CirculoAlien" cx="166.4" cy="184.9" r="27.6"/>
				<circle class="st3CirculoAlien" cx="340.7" cy="133.1" r="27.6"/>
				<circle class="st3CirculoAlien" cx="300.7" cy="43.5" r="27.6"/>
				<circle class="st3CirculoAlien" cx="292.5" cy="510.4" r="9.4"/>
				<circle class="st3CirculoAlien" cx="361" cy="272.8" r="9.4"/>
				<circle class="st3CirculoAlien" cx="230.8" cy="410.2" r="11.3"/>
				<circle class="st3CirculoAlien" cx="283.1" cy="350.3" r="11.3"/>
				<circle class="st3CirculoAlien" cx="377.7" cy="359.7" r="9.4"/>
				<circle class="st3CirculoAlien" cx="353" cy="402.7" r="9.4"/>
				<circle class="st3CirculoAlien" cx="301.9" cy="385" r="9.4"/>
				<circle class="st3CirculoAlien" cx="254.7" cy="438.9" r="9.4"/>
				<circle class="st3CirculoAlien" cx="288.3" cy="170.9" r="10.3"/>
				<circle class="st3CirculoAlien" cx="292.5" cy="138.6" r="18.1"/>
				<circle class="st3CirculoAlien" cx="328.3" cy="233.6" r="18.1"/>
				<circle class="st3CirculoAlien" cx="295.7" cy="552.6" r="8.1"/>
				<circle class="st3CirculoAlien" cx="318.3" cy="486.2" r="8.1"/>
				<circle class="st3CirculoAlien" cx="324.8" cy="459.6" r="8.1"/>
				<circle class="st3CirculoAlien" cx="297.8" cy="421.5" r="8.1"/>
				<circle class="st3CirculoAlien" cx="300.6" cy="480.3" r="8.1"/>
				<circle class="st3CirculoAlien" cx="289.7" cy="402.7" r="8.1"/>
				<circle class="st3CirculoAlien" cx="214.6" cy="436" r="12.3"/>
				<circle class="st3CirculoAlien" cx="251.3" cy="480.3" r="12.3"/>
				<circle class="st3CirculoAlien" cx="219.5" cy="304.7" r="12.3"/>
				<circle class="st3CirculoAlien" cx="321.9" cy="546.4" r="12.3"/>
				<circle class="st3CirculoAlien" cx="264" cy="412.1" r="12.3"/>
				<circle class="st3CirculoAlien" cx="406.3" cy="375.2" r="11.1"/>
				<circle class="st3CirculoAlien" cx="321.9" cy="346.3" r="11.1"/>
				<circle class="st3CirculoAlien" cx="335.9" cy="315.8" r="11.1"/>
				<circle class="st3CirculoAlien" cx="361" cy="246.6" r="11.1"/>
				<circle class="st3CirculoAlien" cx="339.4" cy="288.4" r="11.1"/>
				<circle class="st3CirculoAlien" cx="430.9" cy="202" r="11.1"/>
				<circle class="st3CirculoAlien" cx="403.3" cy="126.1" r="11.1"/>
				<circle class="st3CirculoAlien" cx="193.3" cy="126.1" r="11.1"/>
				<circle class="st3CirculoAlien" cx="162.7" cy="115" r="5.5"/>
				<circle class="st3CirculoAlien" cx="187.8" cy="156.6" r="5.5"/>
				<circle class="st3CirculoAlien" cx="147.6" cy="262.1" r="5.5"/>
				<circle class="st3CirculoAlien" cx="147.6" cy="321.3" r="5.5"/>
				<circle class="st3CirculoAlien" cx="383.2" cy="263.2" r="5.5"/>
				<circle class="st3CirculoAlien" cx="87.7" cy="228.1" r="5.5"/>
				<circle class="st3CirculoAlien" cx="417.4" cy="156.6" r="5.5"/>
				<circle class="st3CirculoAlien" cx="315.4" cy="156.6" r="5.5"/>
				<circle class="st3CirculoAlien" cx="254.7" cy="196.4" r="5.5"/>
				<circle class="st3CirculoAlien" cx="374.6" cy="115" r="5.5"/>
				<circle class="st3CirculoAlien" cx="421.3" cy="335.6" r="5.5"/>
				<circle class="st3CirculoAlien" cx="377.6" cy="283.3" r="5.5"/>
				<circle class="st3CirculoAlien" cx="413.8" cy="354.2" r="5.5"/>
				<circle class="st3CirculoAlien" cx="361" cy="292.4" r="5.5"/>
				<circle class="st3CirculoAlien" cx="493.1" cy="246.6" r="5.5"/>
				<circle class="st3CirculoAlien" cx="513.8" cy="190.9" r="5.5"/>
				<circle class="st3CirculoAlien" cx="324.8" cy="84.1" r="11.1"/>
				<circle class="st3CirculoAlien" cx="324.8" cy="391.4" r="6.5"/>
				<circle class="st3CirculoAlien" cx="321.9" cy="372.5" r="6.5"/>
				<circle class="st3CirculoAlien" cx="361" cy="343.6" r="7.9"/>
				<circle class="st3CirculoAlien" cx="213" cy="364.1" r="11.1"/>
				<circle class="st3CirculoAlien" cx="173.5" cy="257.7" r="11.1"/>
				<circle class="st3CirculoAlien" cx="239" cy="222.6" r="11.1"/>
				<circle class="st3CirculoAlien" cx="195.7" cy="346.3" r="7.9"/>
				<circle class="st3CirculoAlien" cx="222.5" cy="386.9" r="7.9"/>
			</g>
		</g>
	</g>
</g>
</svg>
