<?xml version="1.0" encoding="utf-8"?>
<!-- Generator: Adobe Illustrator 23.0.3, SVG Export Plug-In . SVG Version: 6.00 Build 0)  -->
<svg version="1.1" id="Capa_1" xmlns="http://www.w3.org/2000/svg" xmlns:xlink="http://www.w3.org/1999/xlink" x="0px" y="0px"
	 viewBox="0 0 563.7 595.3" style="enable-background:new 0 0 563.7 595.3;" xml:space="preserve">
<style type="text/css">
	.st0CirculoSilueta{clip-path:url(#SVGID_2_CIRCULO_SILUETA);}
</style>
<ellipse class="st0CirculoSilueta" id="SVGID_1_CIRCULO_SILUETA" transform="matrix(0.7071 -0.7071 0.7071 0.7071 -125.3083 291.9373)" cx="289.7" cy="297.2" rx="291.8" ry="259.2"/>
<g>
	<g>
		<defs>
			<ellipse id="SVGID_1_CIRCULO_SILUETA" transform="matrix(0.7071 -0.7071 0.7071 0.7071 -125.3083 291.9373)" cx="289.7" cy="297.2" rx="291.8" ry="259.2"/>
		</defs>
		<clipPath id="SVGID_2_CIRCULO_SILUETA">
			<use xlink:href="#SVGID_1_CIRCULO_SILUETA"  style="overflow:visible;"/>
		</clipPath>
		<g class="st0CirculoSilueta">
			<g>
				<circle class="st1CirculoSilueta" cx="537.4" cy="218.2" r="20.7"/>
				<circle class="st1CirculoSilueta" cx="111.2" cy="466.7" r="20.7"/>
				<circle class="st1CirculoSilueta" cx="408.3" cy="300.8" r="27.6"/>
				<circle class="st1CirculoSilueta" cx="363.5" cy="18.2" r="27.6"/>
				<circle class="st1CirculoSilueta" cx="111.9" cy="367.2" r="20.7"/>
				<circle class="st1CirculoSilueta" cx="463.5" cy="307.1" r="20.7"/>
				<circle class="st1CirculoSilueta" cx="70.6" cy="301.6" r="27.6"/>
				<circle class="st1CirculoSilueta" cx="233.8" cy="184.6" r="8"/>
				<circle class="st1CirculoSilueta" cx="290.5" cy="532.2" r="10.3"/>
				<circle class="st1CirculoSilueta" cx="270.1" cy="513.4" r="12.3"/>
				<circle class="st1CirculoSilueta" cx="191.4" cy="232.2" r="12.3"/>
				<circle class="st1CirculoSilueta" cx="70.6" cy="193.2" r="12.3"/>
				<circle class="st1CirculoSilueta" cx="210" cy="205.6" r="12.3"/>
				<circle class="st1CirculoSilueta" cx="343.7" cy="361.4" r="11.1"/>
				<circle class="st1CirculoSilueta" cx="463.5" cy="189.4" r="11.1"/>
				<circle class="st1CirculoSilueta" cx="408.3" cy="176.1" r="11.1"/>
				<circle class="st1CirculoSilueta" cx="371.9" cy="326" r="6.5"/>
				<circle class="st1CirculoSilueta" cx="452.4" cy="217.9" r="6.5"/>
				<circle class="st1CirculoSilueta" cx="435.9" cy="176.1" r="6.5"/>
				<circle class="st1CirculoSilueta" cx="484.1" cy="180.9" r="6.5"/>
				<circle class="st1CirculoSilueta" cx="259.8" cy="93.6" r="6.5"/>
				<circle class="st1CirculoSilueta" cx="477.7" cy="156.7" r="6.5"/>
				<circle class="st1CirculoSilueta" cx="139.1" cy="211.4" r="6.5"/>
				<circle class="st1CirculoSilueta" cx="67.5" cy="415.1" r="6.5"/>
				<circle class="st1CirculoSilueta" cx="155.7" cy="497.4" r="6.5"/>
				<circle class="st1CirculoSilueta" cx="339.2" cy="473.2" r="6.5"/>
				<circle class="st1CirculoSilueta" cx="474.5" cy="431.2" r="6.5"/>
				<circle class="st1CirculoSilueta" cx="387.2" cy="384.4" r="6.5"/>
				<circle class="st1CirculoSilueta" cx="340.7" cy="382.9" r="7.9"/>
				<circle class="st1CirculoSilueta" cx="348.6" cy="522.2" r="11.1"/>
			</g>
			<g>
				<circle class="st2CirculoSilueta" cx="168.3" cy="297.2" r="20.7"/>
				<circle class="st2CirculoSilueta" cx="119.1" cy="322.2" r="20.7"/>
				<circle class="st2CirculoSilueta" cx="378.3" cy="546.4" r="20.7"/>
				<circle class="st2CirculoSilueta" cx="493.1" cy="213.1" r="20.7"/>
				<circle class="st2CirculoSilueta" cx="447.4" cy="415.3" r="20.7"/>
				<circle class="st2CirculoSilueta" cx="348.6" cy="438.9" r="20.7"/>
				<circle class="st2CirculoSilueta" cx="241.1" cy="573.3" r="20.7"/>
				<circle class="st2CirculoSilueta" cx="70.6" cy="487.4" r="20.7"/>
				<circle class="st2CirculoSilueta" cx="185" cy="513.6" r="20.7"/>
				<circle class="st2CirculoSilueta" cx="132.6" cy="133.1" r="27.6"/>
				<circle class="st2CirculoSilueta" cx="368.3" cy="77.9" r="27.6"/>
				<circle class="st2CirculoSilueta" cx="520.7" cy="274" r="27.6"/>
				<circle class="st2CirculoSilueta" cx="380.7" cy="487.4" r="27.6"/>
				<circle class="st2CirculoSilueta" cx="56.1" cy="366" r="27.6"/>
				<circle class="st2CirculoSilueta" cx="451.4" cy="359.7" r="27.6"/>
				<circle class="st2CirculoSilueta" cx="451.4" cy="135.6" r="27.6"/>
				<circle class="st2CirculoSilueta" cx="242.6" cy="132.1" r="20.7"/>
				<circle class="st2CirculoSilueta" cx="493.1" cy="103.9" r="20.7"/>
				<circle class="st2CirculoSilueta" cx="241.1" cy="54.7" r="20.7"/>
				<circle class="st2CirculoSilueta" cx="111.2" cy="201.7" r="20.7"/>
				<circle class="st2CirculoSilueta" cx="28.5" cy="268.7" r="20.7"/>
				<circle class="st2CirculoSilueta" cx="98.1" cy="412.4" r="20.7"/>
				<circle class="st2CirculoSilueta" cx="209.9" cy="470.3" r="20.7"/>
				<circle class="st2CirculoSilueta" cx="406.4" cy="238.9" r="20.7"/>
				<circle class="st2CirculoSilueta" cx="126" cy="522.2" r="27.6"/>
				<circle class="st2CirculoSilueta" cx="111.2" cy="257.7" r="27.6"/>
				<circle class="st2CirculoSilueta" cx="185" cy="78.2" r="27.6"/>
				<circle class="st2CirculoSilueta" cx="264.2" cy="545.4" r="9.4"/>
				<circle class="st2CirculoSilueta" cx="331.3" cy="408.1" r="9.4"/>
				<circle class="st2CirculoSilueta" cx="209.9" cy="402.7" r="9.4"/>
				<circle class="st2CirculoSilueta" cx="213" cy="164" r="15.2"/>
				<circle class="st2CirculoSilueta" cx="182.5" cy="398.1" r="8.5"/>
				<circle class="st2CirculoSilueta" cx="339.3" cy="496.8" r="8.5"/>
				<circle class="st2CirculoSilueta" cx="235.5" cy="96.1" r="10.7"/>
				<circle class="st2CirculoSilueta" cx="377.9" cy="160.7" r="12.3"/>
				<circle class="st2CirculoSilueta" cx="360.9" cy="189.4" r="12.3"/>
				<circle class="st2CirculoSilueta" cx="270.1" cy="530.9" r="3.6"/>
				<circle class="st2CirculoSilueta" cx="183.3" cy="364.1" r="12.3"/>
				<circle class="st2CirculoSilueta" cx="365.4" cy="379.1" r="12.3"/>
				<circle class="st2CirculoSilueta" cx="91.3" cy="164" r="12.3"/>
				<circle class="st2CirculoSilueta" cx="151.4" cy="232.2" r="12.3"/>
				<circle class="st2CirculoSilueta" cx="318.4" cy="177.1" r="12.3"/>
				<circle class="st2CirculoSilueta" cx="260" cy="172.4" r="12.3"/>
				<circle class="st2CirculoSilueta" cx="157" cy="375" r="12.3"/>
				<circle class="st2CirculoSilueta" cx="295.8" cy="579.4" r="12.3"/>
				<circle class="st2CirculoSilueta" cx="395.3" cy="343.5" r="11.1"/>
				<circle class="st2CirculoSilueta" cx="543.5" cy="315" r="11.1"/>
				<circle class="st2CirculoSilueta" cx="319.7" cy="516.4" r="11.1"/>
				<circle class="st2CirculoSilueta" cx="419.4" cy="505.3" r="11.1"/>
				<circle class="st2CirculoSilueta" cx="537.4" cy="181.4" r="11.1"/>
				<circle class="st2CirculoSilueta" cx="520.7" cy="382.9" r="11.1"/>
				<circle class="st2CirculoSilueta" cx="390.3" cy="201.7" r="11.1"/>
				<circle class="st2CirculoSilueta" cx="162.5" cy="343.5" r="11.1"/>
				<circle class="st2CirculoSilueta" cx="189.3" cy="421.6" r="11.1"/>
				<circle class="st2CirculoSilueta" cx="247.8" cy="391.7" r="6.5"/>
				<circle class="st2CirculoSilueta" cx="321.9" cy="371.8" r="6.5"/>
				<circle class="st2CirculoSilueta" cx="423.8" cy="264.1" r="6.5"/>
				<circle class="st2CirculoSilueta" cx="493.1" cy="301.6" r="6.5"/>
				<circle class="st2CirculoSilueta" cx="421.3" cy="394" r="6.5"/>
				<circle class="st2CirculoSilueta" cx="421.3" cy="428.8" r="6.5"/>
				<circle class="st2CirculoSilueta" cx="138.2" cy="295.1" r="6.5"/>
				<circle class="st2CirculoSilueta" cx="67.9" cy="259.6" r="6.5"/>
				<circle class="st2CirculoSilueta" cx="342.1" cy="173" r="6.5"/>
				<circle class="st2CirculoSilueta" cx="168.3" cy="436" r="6.5"/>
				<circle class="st2CirculoSilueta" cx="234.9" cy="375.2" r="6.5"/>
				<circle class="st2CirculoSilueta" cx="185" cy="328.7" r="6.5"/>
				<circle class="st2CirculoSilueta" cx="235.5" cy="164.7" r="6.5"/>
				<circle class="st2CirculoSilueta" cx="368.3" cy="213.1" r="6.5"/>
				<circle class="st2CirculoSilueta" cx="385.7" cy="445.4" r="6.5"/>
				<circle class="st2CirculoSilueta" cx="189" cy="445.4" r="6.5"/>
				<circle class="st2CirculoSilueta" cx="144.6" cy="351.8" r="6.5"/>
				<circle class="st2CirculoSilueta" cx="125.3" cy="171.4" r="6.5"/>
				<circle class="st2CirculoSilueta" cx="268.3" cy="114.5" r="6.5"/>
				<circle class="st2CirculoSilueta" cx="90.6" cy="342.9" r="6.5"/>
				<circle class="st2CirculoSilueta" cx="125.3" cy="433" r="6.5"/>
				<circle class="st2CirculoSilueta" cx="52.4" cy="408.1" r="6.5"/>
				<circle class="st2CirculoSilueta" cx="486.7" cy="375.2" r="6.5"/>
			</g>
			<g>
				<circle class="st3CirculoSilueta" cx="147.6" cy="408.3" r="20.7"/>
				<circle class="st3CirculoSilueta" cx="14.7" cy="319.5" r="20.7"/>
				<circle class="st3CirculoSilueta" cx="395.3" cy="415.3" r="20.7"/>
				<circle class="st3CirculoSilueta" cx="493.1" cy="408.1" r="20.7"/>
				<circle class="st3CirculoSilueta" cx="486.1" cy="459.6" r="20.7"/>
				<circle class="st3CirculoSilueta" cx="509.9" cy="158.5" r="20.7"/>
				<circle class="st3CirculoSilueta" cx="230.7" cy="525.7" r="20.7"/>
				<circle class="st3CirculoSilueta" cx="56.1" cy="444.9" r="20.7"/>
				<circle class="st3CirculoSilueta" cx="157" cy="465.5" r="20.7"/>
				<circle class="st3CirculoSilueta" cx="435.9" cy="466.7" r="27.6"/>
				<circle class="st3CirculoSilueta" cx="178.2" cy="563.8" r="27.6"/>
				<circle class="st3CirculoSilueta" cx="458.5" cy="255.7" r="27.6"/>
				<circle class="st3CirculoSilueta" cx="509.9" cy="338.5" r="27.6"/>
				<circle class="st3CirculoSilueta" cx="431" cy="78.2" r="27.6"/>
				<circle class="st3CirculoSilueta" cx="56.1" cy="230.6" r="20.7"/>
				<circle class="st3CirculoSilueta" cx="166.4" cy="184.9" r="27.6"/>
				<circle class="st3CirculoSilueta" cx="340.8" cy="133.1" r="27.6"/>
				<circle class="st3CirculoSilueta" cx="300.8" cy="43.5" r="27.6"/>
				<circle class="st3CirculoSilueta" cx="292.6" cy="510.4" r="9.4"/>
				<circle class="st3CirculoSilueta" cx="230.9" cy="410.2" r="11.3"/>
				<circle class="st3CirculoSilueta" cx="377.7" cy="359.7" r="9.4"/>
				<circle class="st3CirculoSilueta" cx="353.1" cy="402.7" r="9.4"/>
				<circle class="st3CirculoSilueta" cx="288.4" cy="170.9" r="10.3"/>
				<circle class="st3CirculoSilueta" cx="292.6" cy="138.6" r="18.1"/>
				<circle class="st3CirculoSilueta" cx="295.8" cy="552.6" r="8.1"/>
				<circle class="st3CirculoSilueta" cx="214.6" cy="436" r="12.3"/>
				<circle class="st3CirculoSilueta" cx="321.9" cy="546.4" r="12.3"/>
				<circle class="st3CirculoSilueta" cx="406.4" cy="375.2" r="11.1"/>
				<circle class="st3CirculoSilueta" cx="431" cy="202" r="11.1"/>
				<circle class="st3CirculoSilueta" cx="162.8" cy="115" r="5.5"/>
				<circle class="st3CirculoSilueta" cx="187.9" cy="156.6" r="5.5"/>
				<circle class="st3CirculoSilueta" cx="147.6" cy="262.1" r="5.5"/>
				<circle class="st3CirculoSilueta" cx="147.6" cy="321.3" r="5.5"/>
				<circle class="st3CirculoSilueta" cx="383.3" cy="263.2" r="5.5"/>
				<circle class="st3CirculoSilueta" cx="87.8" cy="228.1" r="5.5"/>
				<circle class="st3CirculoSilueta" cx="417.5" cy="156.6" r="5.5"/>
				<circle class="st3CirculoSilueta" cx="315.4" cy="156.6" r="5.5"/>
				<circle class="st3CirculoSilueta" cx="254.7" cy="196.4" r="5.5"/>
				<circle class="st3CirculoSilueta" cx="374.6" cy="115" r="5.5"/>
				<circle class="st3CirculoSilueta" cx="421.3" cy="335.6" r="5.5"/>
				<circle class="st3CirculoSilueta" cx="493.1" cy="246.6" r="5.5"/>
				<circle class="st3CirculoSilueta" cx="513.8" cy="190.9" r="5.5"/>
				<circle class="st3CirculoSilueta" cx="324.8" cy="84.1" r="11.1"/>
				<circle class="st3CirculoSilueta" cx="324.8" cy="391.4" r="6.5"/>
				<circle class="st3CirculoSilueta" cx="321.9" cy="372.5" r="6.5"/>
				<circle class="st3CirculoSilueta" cx="361" cy="343.5" r="7.9"/>
				<circle class="st3CirculoSilueta" cx="213.1" cy="364.1" r="11.1"/>
				<circle class="st3CirculoSilueta" cx="173.6" cy="257.7" r="11.1"/>
				<circle class="st3CirculoSilueta" cx="195.8" cy="346.2" r="7.9"/>
				<circle class="st3CirculoSilueta" cx="222.6" cy="386.9" r="7.9"/>
			</g>
		</g>
	</g>
</g>
</svg>
