<?xml version="1.0" encoding="utf-8"?>
<!-- Generator: Adobe Illustrator 23.0.3, SVG Export Plug-In . SVG Version: 6.00 Build 0)  -->
<svg version="1.1" id="Capa_1" xmlns="http://www.w3.org/2000/svg" xmlns:xlink="http://www.w3.org/1999/xlink" x="0px" y="0px"
	 viewBox="0 0 269.3 495.5" style="enable-background:new 0 0 269.3 495.5;" xml:space="preserve">
<style type="text/css">
	.alienSt0{clip-path:url(#SVGID_2_ALIEN);}
</style>
<g>
	<defs>
		<path id="SVGID_1_ALIEN" d="M238.6,45.1c-11.2,0-20.2,9-20.2,20.2c0,5,1.9,9.6,4.9,13.2l-39.4,55.3c-14.2-10.3-31-15.7-48.6-16.3V53.9
			c8.8-2.2,15.4-10.1,15.4-19.6c0-11.2-9-20.2-20.2-20.2c-11.2,0-20.2,9-20.2,20.2c0,9.5,6.6,17.4,15.4,19.6v63.7
			c-14.5,0.9-29.2,5-42.9,12.3L46.4,78.6c3.1-3.6,5-8.2,5-13.3c0-11.2-9-20.2-20.2-20.2C20,45.1,11,54.1,11,65.3
			c0,11.2,9,20.2,20.2,20.2c2.6,0,5-0.5,7.3-1.4l36,50.7c-6.8,4.4-13.4,9.6-19.4,15.6C14.5,191,10.8,253.1,46.9,289.1
			c12.1,12.1,27.2,19.7,43.3,23c-4.9,2.5-8.3,7.6-8.3,13.4l-1.4,9.1c0,0-45.1,12.2-50.9-22.4c4.2-4.5,3.8-15.5,3.8-15.5
			s-1.4-3.4-5,3.8c-3.6,7.3-3.6-6.9-4.7-9.3c-1.2-2.4-9.5-7.2-9.8,4.2c-0.1,5.2,1.9,16.9,10.3,18.4l-0.2,0.1c0,0,7.8,49,54,36.2
			l-11.3,70.6c0,8.3,6.8,15.1,15.1,15.1l24.6,0.1c-0.1,12.7-1,43.9-7.6,48.5c-8.3,5.9,1.7,5.3,7.6,3.5c4.7-1.4,4.8-38,4.6-52
			l12.3,0.1c-0.2,14.1-0.1,50.5,4.6,51.9c5.8,1.8,15.8,2.3,7.6-3.5c-6.5-4.6-7.5-35.6-7.6-48.4l28.1,0.2c8.3,0,15.1-6.8,15.1-15.1
			l-12.9-70.4c44.3,10.7,51.8-36.8,51.8-36.8l-0.2-0.2c8.2-1.7,10.1-13.2,10-18.3c-0.3-11.4-8.6-6.6-9.8-4.2
			c-1.1,2.3-1.1,16.5-4.7,9.3c-3.6-7.3-5-3.8-5-3.8s-0.4,11.6,4.1,15.8c-5.3,30.1-40.6,24.4-49,22.6l-2.5-13.5
			c0-6.2-3.8-11.5-9.1-13.8c15-5.4,29.4-14.3,41.7-26.7c40.6-40.6,44.2-102.7,8.2-138.7c-0.8-0.8-1.6-1.5-2.4-2.3L231.1,84
			c2.3,0.9,4.8,1.4,7.4,1.4c11.2,0,20.2-9,20.2-20.2C258.8,54.1,249.7,45.1,238.6,45.1z"/>
	</defs>
	<clipPath id="SVGID_2_ALIEN">
		<use xlink:href="#SVGID_1_ALIEN"  style="overflow:visible;"/>
	</clipPath>
	<g class="alienSt0">
		<g>
			<circle class="alienSt1" cx="110.5" cy="217.2" r="9.4"/>
			<circle class="alienSt1" cx="131.4" cy="421.2" r="9.4"/>
			<circle class="alienSt1" cx="130" cy="446.3" r="9.4"/>
			<circle class="alienSt1" cx="101.7" cy="481.3" r="9.4"/>
			<circle class="alienSt1" cx="69.2" cy="343.9" r="9.4"/>
			<circle class="alienSt1" cx="168.8" cy="343.9" r="9.4"/>
			<circle class="alienSt1" cx="147.4" cy="371.3" r="9.4"/>
			<circle class="alienSt1" cx="215.2" cy="295.6" r="9.4"/>
			<circle class="alienSt1" cx="88.8" cy="223.6" r="9.4"/>
			<circle class="alienSt1" cx="82.9" cy="396" r="9.4"/>
			<circle class="alienSt1" cx="47.4" cy="338.6" r="9.4"/>
			<circle class="alienSt1" cx="190.5" cy="338.6" r="9.4"/>
			<circle class="alienSt1" cx="159.4" cy="214.6" r="9.4"/>
			<circle class="alienSt1" cx="110.5" cy="168.2" r="8"/>
			<circle class="alienSt1" cx="71.2" cy="120.5" r="8"/>
			<circle class="alienSt1" cx="139.4" cy="326.5" r="8"/>
			<circle class="alienSt1" cx="186" cy="237.9" r="20.7"/>
			<circle class="alienSt1" cx="55.3" cy="244.8" r="27.6"/>
		</g>
		<g>
			<circle class="alienSt2" cx="57" cy="171.3" r="10.3"/>
			<circle class="alienSt2" cx="157.7" cy="421.2" r="10.3"/>
			<circle class="alienSt2" cx="128" cy="468.1" r="10.3"/>
			<circle class="alienSt2" cx="144" cy="162" r="10.3"/>
			<circle class="alienSt2" cx="125.8" cy="106.8" r="10.3"/>
			<circle class="alienSt2" cx="79.4" cy="423.8" r="10.3"/>
			<circle class="alienSt2" cx="31" cy="327.3" r="10.3"/>
			<circle class="alienSt2" cx="118.9" cy="141.4" r="18.1"/>
			<circle class="alienSt2" cx="130" cy="74.5" r="18.1"/>
			<circle class="alienSt2" cx="134.9" cy="193.9" r="20.7"/>
			<circle class="alienSt2" cx="87.3" cy="193.9" r="17.2"/>
			<circle class="alienSt2" cx="160.2" cy="274" r="16.2"/>
			<circle class="alienSt2" cx="98.2" cy="350.8" r="16.2"/>
			<circle class="alienSt2" cx="114.4" cy="299.7" r="27.6"/>
		</g>
		<g>
			<circle class="alienSt3" cx="80.1" cy="155.7" r="15.2"/>
			<circle class="alienSt3" cx="50.4" cy="99.9" r="15.2"/>
			<circle class="alienSt3" cx="71.2" cy="286.2" r="12.3"/>
			<circle class="alienSt3" cx="154.3" cy="396" r="9.1"/>
			<circle class="alienSt3" cx="99.6" cy="248.6" r="12.3"/>
			<circle class="alienSt3" cx="215.4" cy="96.6" r="12.3"/>
			<circle class="alienSt3" cx="198.4" cy="125.3" r="12.3"/>
			<circle class="alienSt3" cx="104.4" cy="421.2" r="12.3"/>
			<circle class="alienSt3" cx="107.6" cy="449.3" r="12.3"/>
			<circle class="alienSt3" cx="84.2" cy="375.1" r="8.1"/>
			<circle class="alienSt3" cx="133.3" cy="488.5" r="8.1"/>
			<circle class="alienSt3" cx="107.6" cy="466.7" r="3.6"/>
			<circle class="alienSt3" cx="20.8" cy="299.7" r="12.3"/>
			<circle class="alienSt3" cx="130" cy="350.9" r="12.3"/>
			<circle class="alienSt3" cx="202.9" cy="315" r="12.3"/>
			<circle class="alienSt3" cx="137" cy="240" r="20.7"/>
			<circle class="alienSt3" cx="119.4" cy="388.4" r="21.1"/>
			<circle class="alienSt3" cx="47" cy="199.7" r="16.2"/>
			<circle class="alienSt3" cx="238.4" cy="65.4" r="19.6"/>
			<circle class="alienSt3" cx="130" cy="33.7" r="19.6"/>
			<circle class="alienSt3" cx="165.4" cy="142.9" r="13.8"/>
			<circle class="alienSt3" cx="30.8" cy="65.4" r="19.6"/>
			<circle class="alienSt3" cx="187.8" cy="184.3" r="27.6"/>
		</g>
	</g>
</g>
</svg>
