<?xml version="1.0" encoding="utf-8"?>
<!-- Generator: Adobe Illustrator 23.0.3, SVG Export Plug-In . SVG Version: 6.00 Build 0)  -->
<svg version="1.1" xmlns="http://www.w3.org/2000/svg" xmlns:xlink="http://www.w3.org/1999/xlink" x="0px" y="0px"
	 viewBox="0 0 973.6 521.3" style="enable-background:new 0 0 973.6 521.3;" xml:space="preserve">
<style type="text/css">
	.st0{display:none;}
	.st1{display:inline;}
	.st2{clip-path:url(#SVGID_2_);}
	.st3{clip-path:url(#SVGID_4_);}
	.st4{display:inline;fill:#CB6120;}
	.st5{display:inline;fill:#1165A0;}
	.st6{display:inline;opacity:0.5;fill:#E1A831;}
	.st7{display:inline;opacity:0.47;fill:#516939;}
	.st8{display:inline;fill:#E6B54A;}
	.st9{display:inline;opacity:0.5;fill:#FFFFFF;}
	.st10{display:inline;fill:#6E257F;}
	.st11{display:inline;opacity:0.47;fill:#E1A831;}
	.st12{fill:#B49EC4;}
	.st13{fill:#772577;}
	.st14{fill:#579791;}
	.st15{fill:#6DACAA;}
	.st16{fill:#DDAA45;}
	.st17{fill:#639CCD;}
	.st18{fill:#4D863E;}
	.st19{display:inline;fill:#BF4F37;}
	.st20{display:inline;fill:#6A2A77;}
	.st21{display:inline;opacity:0.47;fill:#50663D;}
	.st22{display:inline;opacity:0.47;fill:#D99E34;}
	.st23{fill:#E6B54A;}
</style>
<g id="Capa_1" class="st0">
	<g class="st1">
		<g>
			<defs>
				<rect id="SVGID_1_" x="-835.7" y="-517" width="2577" height="1610.6"/>
			</defs>
			<clipPath id="SVGID_2_">
				<use xlink:href="#SVGID_1_"  style="overflow:visible;"/>
			</clipPath>
			<g class="st2">
				<g>
					<defs>
						<rect id="SVGID_3_" x="-840.7" y="-522" width="2587" height="1620.6"/>
					</defs>
					<clipPath id="SVGID_4_">
						<use xlink:href="#SVGID_3_"  style="overflow:visible;"/>
					</clipPath>
					<g class="st3">
						<defs>
							<rect id="SVGID_5_" x="-840.7" y="-522" width="2587" height="1620.6"/>
						</defs>
						<clipPath id="SVGID_6_">
							<use xlink:href="#SVGID_5_"  style="overflow:visible;"/>
						</clipPath>
						<g style="clip-path:url(#SVGID_6_);">
							
								<image style="overflow:visible;" width="5391" height="3377" xlink:href="3CB0D690C333F456.jpg"  transform="matrix(0.48 0 0 0.48 -841.145 -522.2418)">
							</image>
						</g>
					</g>
				</g>
			</g>
		</g>
	</g>
	<circle class="st4" cx="-246.6" cy="-395" r="13.6"/>
	<circle class="st5" cx="1115.1" cy="993" r="13.6"/>
	<circle class="st5" cx="1362.8" cy="305.4" r="13.6"/>
	<circle class="st5" cx="1115.1" cy="521.3" r="13.6"/>
	<circle class="st6" cx="1604" cy="545.5" r="13.6"/>
	<circle class="st6" cx="212.1" cy="-417.5" r="13.6"/>
	<circle class="st7" cx="707.1" cy="-403.8" r="13.6"/>
	<circle class="st7" cx="1631.3" cy="-444.8" r="13.6"/>
	<circle class="st8" cx="117.1" cy="91.1" r="13.6"/>
	<circle class="st6" cx="-519.4" cy="274.7" r="13.6"/>
	<circle class="st6" cx="1658.2" cy="45.5" r="13.6"/>
	<circle class="st6" cx="1356.1" cy="-484.4" r="13.6"/>
	<circle class="st6" cx="1179.3" cy="-345.5" r="13.6"/>
	<circle class="st7" cx="-187.2" cy="586.4" r="13.6"/>
	<circle class="st8" cx="-650.5" cy="-417.5" r="13.6"/>
	<circle class="st5" cx="-722.7" cy="1026.3" r="13.6"/>
	<circle class="st9" cx="1617.7" cy="965.7" r="13.6"/>
	<circle class="st7" cx="-722.7" cy="572.8" r="13.6"/>
	<circle class="st10" cx="418.9" cy="-106.2" r="13.6"/>
	<circle class="st10" cx="675.1" cy="993" r="13.6"/>
	<circle class="st10" cx="-753.8" cy="45.5" r="13.6"/>
	<circle class="st10" cx="1193" cy="45.5" r="13.6"/>
	<circle class="st5" cx="239.4" cy="1020.2" r="13.6"/>
	<circle class="st5" cx="327.2" cy="72.8" r="13.6"/>
	<circle class="st11" cx="-260.3" cy="45.5" r="13.6"/>
	<circle class="st11" cx="-287.6" cy="965.7" r="13.6"/>
	<circle class="st11" cx="-423.3" cy="545.5" r="13.6"/>
	<g class="st1">
		
			<ellipse transform="matrix(0.7071 -0.7071 0.7071 0.7071 -110.2073 1173.4336)" class="st12" cx="1361.4" cy="719.7" rx="221" ry="196.3"/>
		<path class="st13" d="M1210.6,593.7c0,0,13.5,54.3,100.5,32.6c87-21.7,223.7-42.7,223.7-42.7l15,24.1c0,0-166.2,29.4-239.9,47.5
			c-73.7,18.1-112.4-44.4-112.4-44.4L1210.6,593.7z"/>
		<path class="st13" d="M1161.9,681.2c0,0,57.4,49,139.6,27.2c82.2-21.7,134.1,13.3,174-2.4c39.9-15.7,91.5-47.9,91.5-47.9l3.2,27.9
			c0,0-35.5,44.1-102,45.3c-66.5,1.2-122-8.5-181.2,9.7c-59.2,18.1-131.6-32.4-131.6-32.4L1161.9,681.2z"/>
		<path class="st13" d="M1161.5,804.3c0,0,27.6-13.7,133.9,9.3c106.3,23,252.1-21.3,252.1-21.3l-15.9,27.9c0,0-82.6,30.9-170.3,26
			s-140.8-29.6-192.2-22L1161.5,804.3z"/>
		<path class="st13" d="M1249.3,908.2c0,0,78.7-15.3,160.9,0h18.8l-20.4,8.2c0,0-103-13.9-135.3,2L1249.3,908.2z"/>
		<path class="st13" d="M1472.5,531.5c0,0-78.7,15.3-160.9,0h-18.8l20.4-8.2c0,0,103,13.9,135.3-2L1472.5,531.5z"/>
	</g>
	<g class="st1">
		
			<ellipse transform="matrix(0.7071 -0.7071 0.7071 0.7071 547.3351 940.0292)" class="st14" cx="1408.4" cy="-190.7" rx="215.5" ry="191.5"/>
		<ellipse class="st15" cx="1442.1" cy="-310.1" rx="40.4" ry="19.5"/>
		<ellipse class="st15" cx="1358.8" cy="-197" rx="42.9" ry="33.6"/>
		<ellipse class="st15" cx="1346.3" cy="-47.8" rx="25" ry="20.4"/>
		<circle class="st15" cx="1515.3" cy="-161.5" r="20.9"/>
		
			<ellipse transform="matrix(0.6628 -0.7488 0.7488 0.6628 731.8575 1085.0851)" class="st15" cx="1570.6" cy="-270" rx="10.1" ry="15.8"/>
		<circle class="st15" cx="1230.9" cy="-161.5" r="12.7"/>
		<ellipse class="st15" cx="1274.9" cy="-310.1" rx="10.4" ry="7.8"/>
		<ellipse class="st15" cx="1389.9" cy="-361.4" rx="11.8" ry="4.5"/>
		
			<ellipse transform="matrix(0.6222 -0.7829 0.7829 0.6222 613.5845 1134.8829)" class="st15" cx="1482.5" cy="-68.2" rx="17.6" ry="25.3"/>
	</g>
	<g class="st1">
		
			<ellipse transform="matrix(0.7071 -0.7071 0.7071 0.7071 -11.5602 -350.9527)" class="st16" cx="-429.4" cy="-161.5" rx="157.2" ry="139.7"/>
		<path class="st13" d="M-280.7-174.1c10.8,2.9,21.5,6.5,31.9,11.1c5.2,2.3,10.3,4.9,15.2,8.1c2.4,1.6,4.8,3.4,7,5.7
			c1.1,1.1,2.2,2.4,3.1,3.9c0.9,1.5,1.7,3.4,1.8,5.5c0.2,2.1-0.5,4.4-1.6,6.2c-1.1,1.8-2.5,3-3.8,4.1c-2.8,2-5.6,3.3-8.5,4.3
			c-5.7,2-11.4,3-17.1,3.9c-11.4,1.6-22.7,1.9-34,1.7c-22.6-0.6-44.9-3.7-67.1-6.3l-33.3-4c-11.1-1.4-22.2-2.6-33.3-4.2
			c-11.1-1.5-22.2-3-33.3-5c-11.1-1.9-22.1-4.1-33-6.6c-21.9-4.8-43.7-10.5-65.1-17.9c-10.6-3.8-21.2-7.8-31.5-12.8
			c-5.1-2.5-10.2-5.1-15.2-8.2c-2.5-1.5-4.9-3.2-7.2-5.1c-2.3-1.9-4.6-3.9-6.6-6.5c-1-1.3-1.9-2.8-2.6-4.5c-0.7-1.7-1.1-3.9-0.7-6
			c0.4-2.1,1.5-4,2.8-5.3c1.3-1.4,2.7-2.3,4.1-3.1c5.6-3.1,11.4-4.1,17-5c5.7-0.8,11.3-1.1,17-1.3c5.6-0.1,11.3-0.1,16.9,0.3l0,1
			c-5.6,0.5-11.1,1.1-16.6,1.9c-5.5,0.8-11,1.7-16.3,3c-2.7,0.6-5.3,1.4-7.8,2.3c-2.5,0.9-4.9,1.9-6.9,3.3c-2,1.3-3.3,3-3.3,4.2
			c-0.1,1.2,0.7,3,2.3,4.7c3.1,3.5,7.8,6.4,12.4,9c4.7,2.6,9.6,5,14.6,7.1c10.1,4.3,20.4,8.1,30.9,11.6c21,7,42.4,13.2,63.9,18.7
			c10.8,2.8,21.6,5.3,32.5,7.8c10.9,2.5,21.7,5.1,32.6,7.3c10.9,2.2,21.9,4.5,32.9,6.1c11,1.7,22.1,3.1,33.2,4.1
			c22.2,2,44.6,2,66.7,1.4c11.1-0.3,22.1-0.8,32.9-2.1c5.4-0.7,10.7-1.6,15.6-3.2c2.4-0.8,4.8-1.7,6.5-2.9c0.9-0.6,1.6-1.3,2-1.9
			c0.4-0.6,0.6-1.1,0.6-1.8c0.1-1.3-1.1-3.3-2.6-5.2c-1.6-1.8-3.6-3.6-5.6-5.2c-4.2-3.2-8.9-6.1-13.7-8.8c-9.6-5.4-19.8-10-30-14.7
			L-280.7-174.1z"/>
		<path class="st13" d="M-285-214.4c5.4-0.4,10.8-0.6,16.3-0.5c5.5,0.2,11,0.5,16.5,1.7c2.8,0.6,5.5,1.4,8.3,2.6l2.1,1.1
			c0.7,0.4,1.3,1,2,1.4c0.6,0.6,1.3,1.2,1.8,1.9c0.5,0.8,1.1,1.5,1.4,2.5c0.8,1.8,0.8,4,0.5,5.8c-0.4,1.8-1.1,3.4-2,4.8
			c-1.7,2.8-3.8,4.9-5.9,6.9c-8.7,7.7-18.4,12.8-28.2,17.7c-9.8,4.8-20,8.9-30.2,12.4c-20.6,7.1-41.7,12.1-62.6,17.7l-31.3,8.3
			c-10.5,2.7-20.9,5.6-31.4,8.2c-10.5,2.6-21,5.3-31.6,7.5c-10.6,2.3-21.3,4.2-32,6c-21.4,3.6-43,6.3-64.8,7.3
			c-10.9,0.4-21.9,0.5-32.9-0.4c-5.5-0.5-11-1.1-16.6-2.2c-2.8-0.6-5.5-1.3-8.3-2.3c-2.8-1-5.6-2.3-8.3-4.5
			c-1.3-1.1-2.6-2.5-3.5-4.4c-0.9-1.9-1.1-4.1-0.8-6c0.7-3.9,2.9-6.4,4.9-8.6c4.2-4.3,8.9-7.2,13.7-10c4.8-2.7,9.7-5,14.7-7.2
			c5-2.2,10.1-4.1,15.2-5.9l0.4,0.9c-4.8,2.5-9.5,5.1-14.2,7.7c-4.6,2.7-9.2,5.5-13.5,8.6c-4.3,3-8.5,6.3-11.6,10.1
			c-1.5,1.8-2.7,3.9-2.7,5.4c0,0.7,0.1,1.3,0.4,1.8c0.3,0.6,0.9,1.2,1.7,1.7c1.6,1.1,3.8,2.1,6.1,2.7c2.3,0.7,4.8,1.2,7.4,1.6
			c5.1,0.8,10.3,1.2,15.6,1.4c10.5,0.3,21.2,0.1,31.8-0.6c21.3-1.2,42.7-3.3,64-6.1c10.6-1.4,21.3-3,31.9-4.6
			c10.6-1.6,21.3-3.2,31.9-5.1c10.6-1.9,21.2-3.8,31.7-6.3c10.5-2.4,20.9-5.1,31.3-8.1c20.7-6.1,40.8-14,60.6-22.1
			c9.9-4,19.8-8.2,29.4-12.6c4.8-2.2,9.6-4.6,14.1-7.2c4.6-2.6,9.1-5.3,12.9-8.5c1.9-1.6,3.7-3.3,4.9-5.1c1.2-1.8,1.8-3.4,1.3-4.7
			c-0.1-0.7-0.7-1.4-1.3-2.1l-1.2-1l-1.4-0.9c-2.1-1.2-4.5-2.1-6.9-2.9c-10-2.9-20.8-4.1-31.5-5.2L-285-214.4z"/>
		<path class="st13" d="M-281.9-162c10.8,2.1,21.5,4.9,32,8.7c5.2,1.9,10.4,4,15.5,6.8c2.5,1.4,5,2.9,7.4,4.8
			c2.3,1.9,4.7,4.1,6.3,7.7c0.8,1.8,1.1,4,0.7,6.1c-0.4,2.2-1.5,4-2.7,5.4c-2.4,2.8-5.2,4.4-7.9,5.8c-5.5,2.6-11,4.1-16.5,5.4
			c-11,2.5-22.1,3.6-33.2,4.2c-22.2,1-44.2-0.6-66.2-1.6l-32.9-1.7c-11-0.6-22-1-33-1.8c-11-0.7-22-1.5-32.9-2.6
			c-11-1.1-21.9-2.5-32.8-4.1c-21.8-3.2-43.6-7.2-65-12.7c-10.7-2.9-21.4-6-31.8-9.8c-10.5-3.9-20.9-8.1-30.6-14.5
			c-2.4-1.6-4.8-3.4-6.9-5.7c-1.1-1.1-2.1-2.4-3-3.9c-0.9-1.5-1.6-3.3-1.7-5.3c-0.1-1,0-2,0.3-3c0.2-1,0.7-1.8,1.1-2.7
			c0.5-0.8,1.1-1.5,1.6-2.1c0.6-0.6,1.2-1.2,1.9-1.6c2.6-1.9,5.3-3.1,8-4.1c5.4-2,10.9-3,16.4-3.8c5.5-0.8,11-1.3,16.5-1.5l0.1,0.9
			c-10.7,2.2-21.6,4.4-31.2,8.9c-2.3,1.1-4.6,2.4-6.3,4c-0.4,0.4-0.7,0.8-1.1,1.2c-0.2,0.4-0.6,0.8-0.8,1.2
			c-0.1,0.4-0.4,0.8-0.3,1.1c-0.1,0.4-0.1,0.7,0,1.1c0.2,1.4,1.5,3.3,3.3,4.8c1.8,1.6,3.9,3,6.1,4.3c4.5,2.6,9.3,4.8,14.3,6.7
			c5,2,10.1,3.8,15.2,5.4c10.3,3.2,20.8,6.2,31.3,8.7c21.1,5.3,42.5,9.8,64,13.7c10.8,1.9,21.5,3.7,32.3,5.4
			c10.8,1.7,21.6,3.5,32.5,5c10.9,1.4,21.7,2.9,32.7,3.8c10.9,1,21.9,1.6,32.8,1.8c21.9,0.5,43.8-1.1,65.5-3.2
			c10.8-1.1,21.6-2.4,32-4.5c5.2-1.1,10.3-2.5,14.8-4.5c2.2-1,4.3-2.2,5.5-3.6c0.6-0.7,1-1.3,1.1-1.8c0.1-0.5,0.1-1.1-0.2-1.9
			c-0.5-1.6-2.1-3.4-3.9-5.1c-1.8-1.6-3.9-3.2-6.2-4.6c-4.5-2.8-9.2-5.3-14.1-7.6c-9.8-4.6-20.1-8.5-30.3-12.4L-281.9-162z"/>
	</g>
	<g class="st1">
		
			<ellipse transform="matrix(0.7071 -0.7071 0.7071 0.7071 -614.2308 195.5432)" class="st17" cx="-71.1" cy="839.2" rx="191" ry="169.7"/>
		<path class="st18" d="M-148.3,686.1c0,0,64.9-3.9,55.3,27c-9.6,30.9-32.8,39.9,1,37.3c33.7-2.6,49.2,51.4,33.7,51.4
			s-11.1,11.2,6,37.4c14.4,22,25.1,32.5,11.1,34.7c-2.7,0.4-6.3,0.5-11.1,0.3c-29.1-1.1-97.3-6.9-73.8,29.8s57.4,42.7,49.1,59
			c-8.3,16.2,31.7,4.7,35.8-12.7c4.1-17.4,5.1-42.7,6.5-53.2s17.6-36.3,0-47.1c-17.6-10.8-10.3-19.3,29.3-50.1s12.4-82.9,0-92.6
			s20.7-35.8,20.7-35.8s-29.9-12.7-53.9-12.6c-24,0.1-55.9,2.2-77.9,12S-148.3,686.1-148.3,686.1z"/>
		<path class="st18" d="M-206.1,974.3c0,0-14.5-29.7,0-26.7c14.5,2.9,32.8,32.4,42.8,19.4s21.2-18.9,18.8,3.8
			c-2.4,22.7-7,39,0.3,41.1c0,0-9.2-3.3-26.6-11.3C-188.2,992.6-206.1,974.3-206.1,974.3z"/>
	</g>
	<path class="st19" d="M-287.6,260.8l8.7,6.5c0,0,36.1-23.4,44.4-15.1c8.3,8.3-15.1,44.4-15.1,44.4s33.4,27.2,28.1,37.6
		c-5.3,10.5-46.9-0.6-46.9-0.6s-15.5,40.2-27.1,38.3c-11.6-1.8-13.9-44.8-13.9-44.8s-43-2.3-44.8-13.9
		c-1.8-11.6,38.3-27.1,38.3-27.1s-11.1-41.6-0.6-46.9C-308.5,235.2-287.6,260.8-287.6,260.8"/>
	<path class="st20" d="M-437,800.7l9,6.7c0,0,37.3-24.1,45.8-15.5c8.6,8.6-15.5,45.8-15.5,45.8s34.4,28,28.9,38.8
		c-5.5,10.8-48.4-0.6-48.4-0.6s-16,41.4-27.9,39.5c-11.9-1.9-14.4-46.2-14.4-46.2s-44.3-2.4-46.2-14.4
		c-1.9-11.9,39.5-27.9,39.5-27.9s-11.4-42.9-0.6-48.4C-458.5,774.2-437,800.7-437,800.7"/>
	<path class="st20" d="M452.7,698.9l9,6.7c0,0,37.3-24.1,45.8-15.5c8.6,8.6-15.5,45.8-15.5,45.8s34.4,28,28.9,38.8
		c-5.5,10.8-48.4-0.6-48.4-0.6s-16,41.4-27.9,39.5c-11.9-1.9-14.4-46.2-14.4-46.2s-44.3-2.4-46.2-14.4
		c-1.9-11.9,39.5-27.9,39.5-27.9s-11.4-42.9-0.6-48.4C431.2,672.5,452.7,698.9,452.7,698.9"/>
	<path class="st21" d="M846.1,379.1l8.4,6.3c0,0,34.8-22.5,42.8-14.5c8,8-14.5,42.8-14.5,42.8s32.2,26.2,27.1,36.3
		c-5.1,10.1-45.2-0.6-45.2-0.6s-14.9,38.7-26.1,36.9c-11.2-1.8-13.4-43.2-13.4-43.2s-41.4-2.3-43.2-13.4
		c-1.8-11.2,36.9-26.1,36.9-26.1s-10.7-40.1-0.6-45.2C825.9,354.4,846.1,379.1,846.1,379.1"/>
	<path class="st21" d="M103.4-233.7l8.4,6.3c0,0,34.8-22.5,42.8-14.5c8,8-14.5,42.8-14.5,42.8s32.2,26.2,27.1,36.3
		c-5.1,10.1-45.2-0.6-45.2-0.6s-14.9,38.7-26.1,36.9c-11.2-1.8-13.4-43.2-13.4-43.2S41-172,39.2-183.1
		c-1.8-11.2,36.9-26.1,36.9-26.1s-10.7-40.1-0.6-45.2C83.3-258.4,103.4-233.7,103.4-233.7"/>
	<path class="st22" d="M948.7,749.2l8.4,6.3c0,0,34.8-22.5,42.8-14.5c8,8-14.5,42.8-14.5,42.8s32.2,26.2,27.1,36.3
		c-5.1,10.1-45.2-0.6-45.2-0.6s-14.9,38.7-26.1,36.9c-11.2-1.8-13.4-43.2-13.4-43.2s-41.4-2.3-43.2-13.4
		c-1.8-11.2,36.9-26.1,36.9-26.1s-10.7-40.1-0.6-45.2C928.6,724.5,948.7,749.2,948.7,749.2"/>
	<path class="st22" d="M720.7-213.5l8.4,6.3c0,0,34.8-22.5,42.8-14.5c8,8-14.5,42.8-14.5,42.8s32.2,26.2,27.1,36.3
		c-5.1,10.1-45.2-0.6-45.2-0.6s-14.9,38.7-26.1,36.9c-11.2-1.8-13.4-43.2-13.4-43.2s-41.4-2.3-43.2-13.4
		c-1.8-11.2,36.9-26.1,36.9-26.1s-10.7-40.1-0.6-45.2C700.6-238.2,720.7-213.5,720.7-213.5"/>
	<path class="st9" d="M1408.4,1091.6l6.1,4.6c0,0,25.5-16.5,31.3-10.6c5.8,5.8-10.6,31.3-10.6,31.3s23.5,19.1,19.8,26.5
		s-33.1-0.4-33.1-0.4s-10.9,28.3-19.1,27c-8.2-1.3-9.8-31.6-9.8-31.6s-30.3-1.7-31.6-9.8c-1.3-8.2,27-19.1,27-19.1
		s-7.8-29.3-0.4-33.1C1393.7,1073.5,1408.4,1091.6,1408.4,1091.6"/>
</g>
<g id="Capa_2">
	<path class="st23" d="M883.2,479.8L83.4,521.3C37.5,521.3,0,483.8,0,438V91C0,41,41,0,91,0l825.5,45.5c31.4,0,57.1,25.7,57.1,57.1
		v286.9C973.6,439.2,932.9,479.8,883.2,479.8z"/>
</g>
</svg>
