<?xml version="1.0" encoding="utf-8"?>
<!-- Generator: Adobe Illustrator 23.0.3, SVG Export Plug-In . SVG Version: 6.00 Build 0)  -->
<svg version="1.1" id="Capa_1" xmlns="http://www.w3.org/2000/svg" xmlns:xlink="http://www.w3.org/1999/xlink" x="0px" y="0px"
	 viewBox="0 0 821.12 1600" style="enable-background:new 0 0 821.12 1600;" xml:space="preserve">
<style type="text/css">
	.st1{fill:#0000ff;}
</style>
<path class="st1" d="M728.01,212.97c-34.14,0-61.82,27.68-61.82,61.82c0,15.44,5.7,29.52,15.05,40.36l-120.49,169.4
	c-43.35-31.55-95.02-48.13-148.7-50.03V240.01c27.02-6.61,47.1-30.92,47.1-59.99c0-34.14-27.68-61.82-61.82-61.82
	c-34.14,0-61.82,27.68-61.82,61.82c0,29.06,20.08,53.37,47.1,59.99v194.95c-44.41,2.8-89.35,15.43-131.34,37.59l-111.7-157.04
	c9.54-10.88,15.38-25.1,15.38-40.71c0-34.14-27.68-61.82-61.82-61.82c-34.14,0-61.82,27.68-61.82,61.82
	c0,34.14,27.68,61.82,61.82,61.82c7.89,0,15.4-1.53,22.33-4.22l110.28,155.05c-20.95,13.46-40.94,29.4-59.45,47.9
	C42.09,659.54,30.86,849.66,141.19,959.99c37.05,37.05,83.11,60.32,132.63,70.29c-14.98,7.66-25.32,23.23-25.32,41.13l-4.42,27.7
	c-0.01,0-138.11,37.23-155.87-68.7c12.72-13.63,11.59-47.48,11.59-47.48s-4.32-10.49-15.43,11.73
	c-11.11,22.22-10.98-21.24-14.49-28.39c-3.6-7.32-29.14-22.04-29.95,12.96c-0.37,16.03,5.86,51.86,31.62,56.28l-0.52,0.41
	c0,0,23.97,150.11,165.44,110.86l-34.46,216.07c0,25.41,20.79,46.21,46.21,46.21l75.26,0.44c-0.27,38.97-3.02,134.3-23.12,148.52
	c-25.36,17.95,5.25,16.15,23.15,10.77c14.44-4.34,14.6-116.17,14.12-159.21l37.55,0.22c-0.47,43.2-0.29,154.65,14.12,158.99
	c17.9,5.38,48.51,7.18,23.15-10.77c-20.03-14.18-22.83-108.92-23.12-148.14l86.01,0.51c25.41,0,46.21-20.79,46.21-46.21
	l-39.34-215.65c135.48,32.69,158.68-112.61,158.68-112.61l-0.73-0.58c24.97-5.13,31.04-40.28,30.67-56.12
	c-0.8-35-26.35-20.28-29.95-12.96c-3.51,7.15-3.38,50.61-14.49,28.39c-11.11-22.22-15.43-11.73-15.43-11.73s-1.17,35.53,12.58,48.44
	c-16.2,92.09-124.23,74.63-150.11,69.05l-7.55-41.4c0-18.9-11.51-35.22-27.85-42.36c45.97-16.62,89.95-43.91,127.79-81.76
	c124.19-124.19,135.42-314.31,25.09-424.64c-2.41-2.41-4.9-4.68-7.38-6.97l121.68-171.06c7.06,2.8,14.73,4.39,22.79,4.39
	c34.14,0,61.82-27.68,61.82-61.82C789.83,240.65,762.15,212.97,728.01,212.97z"/>
</svg>
