<?xml version="1.0" encoding="utf-8"?>
<!-- Generator: Adobe Illustrator 23.0.3, SVG Export Plug-In . SVG Version: 6.00 Build 0)  -->
<svg version="1.1" id="Capa_1" xmlns="http://www.w3.org/2000/svg" xmlns:xlink="http://www.w3.org/1999/xlink" x="0px" y="0px"
	 viewBox="0 0 287.8 282.4" style="enable-background:new 0 0 287.8 282.4;" xml:space="preserve">
<g>
	<circle class="st0" cx="162.5" cy="232.6" r="8.2"/>
	<circle class="st0" cx="239.5" cy="118.9" r="8.2"/>
	<circle class="st0" cx="156.6" cy="110.8" r="8.2"/>
	<circle class="st0" cx="181.6" cy="210.2" r="8.2"/>
	<circle class="st0" cx="267.1" cy="118.9" r="8.2"/>
	<circle class="st0" cx="155.4" cy="132.7" r="8.2"/>
	<circle class="st0" cx="110.9" cy="164" r="8.2"/>
	<circle class="st0" cx="93.9" cy="97" r="8.2"/>
	<circle class="st0" cx="61.4" cy="196.4" r="8.2"/>
	<circle class="st0" cx="193.8" cy="57.1" r="8.2"/>
	<circle class="st0" cx="115.4" cy="93.9" r="8.2"/>
	<circle class="st0" cx="140.7" cy="218.4" r="8.2"/>
	<circle class="st0" cx="130.2" cy="78.4" r="8.2"/>
	<circle class="st0" cx="141.1" cy="148.4" r="8.2"/>
	<circle class="st0" cx="57.5" cy="139.1" r="8.2"/>
	<circle class="st0" cx="85.3" cy="167.7" r="8.2"/>
	<circle class="st0" cx="236.9" cy="55.3" r="8.2"/>
	<circle class="st0" cx="220" cy="36" r="7"/>
	<circle class="st0" cx="216.7" cy="56.5" r="7"/>
	<circle class="st0" cx="41.1" cy="169.5" r="7"/>
	<circle class="st1" cx="48.1" cy="72.4" r="13.3"/>
	<circle class="st1" cx="192.6" cy="30.2" r="13.3"/>
	<circle class="st2" cx="44" cy="215.8" r="8.9"/>
	<circle class="st1" cx="269.4" cy="166.9" r="8.9"/>
	<circle class="st2" cx="123.6" cy="181" r="8.9"/>
	<circle class="st2" cx="122.3" cy="142.7" r="8.9"/>
	<circle class="st2" cx="62.6" cy="47.5" r="8.9"/>
	<circle class="st2" cx="62.6" cy="161.9" r="8.9"/>
	<circle class="st2" cx="77.5" cy="118.9" r="8.9"/>
	<circle class="st2" cx="181.6" cy="114.2" r="8.9"/>
	<circle class="st2" cx="35" cy="125" r="8.9"/>
	<circle class="st2" cx="195.6" cy="143.5" r="15.7"/>
	<circle class="st2" cx="22.1" cy="150.5" r="15.7"/>
	<circle class="st2" cx="253.2" cy="89.2" r="18"/>
	<circle class="st2" cx="185.6" cy="254.3" r="15"/>
	<circle class="st2" cx="209.7" cy="181" r="14.1"/>
	<circle class="st2" cx="231" cy="143.5" r="14.1"/>
	<circle class="st2" cx="138.8" cy="52.4" r="14.1"/>
	<circle class="st1" cx="70.1" cy="89.2" r="10.8"/>
	<circle class="st1" cx="173.7" cy="55.3" r="8"/>
	<circle class="st1" cx="156.6" cy="265.1" r="10.8"/>
	<circle class="st1" cx="87.3" cy="31.1" r="10.8"/>
	<circle class="st1" cx="53" cy="110.8" r="10.8"/>
	<circle class="st1" cx="133" cy="110.8" r="10.8"/>
	<circle class="st1" cx="271.2" cy="143.5" r="10.8"/>
	<circle class="st1" cx="107.2" cy="118.9" r="10.8"/>
	<circle class="st1" cx="115.4" cy="43" r="7.1"/>
	<circle class="st1" cx="117.9" cy="206.8" r="7.1"/>
	<circle class="st1" cx="213" cy="118.9" r="7.1"/>
	<circle class="st1" cx="26.1" cy="101" r="10.8"/>
	<circle class="st1" cx="32.9" cy="190.8" r="10.8"/>
	<circle class="st1" cx="91.6" cy="140.9" r="10.8"/>
	<circle class="st1" cx="211.8" cy="88.8" r="18"/>
	<circle class="st0" cx="249" cy="190.8" r="18"/>
	<circle class="st0" cx="115.4" cy="246.9" r="24.1"/>
	<circle class="st2" cx="164.8" cy="176.5" r="24.1"/>
	<circle class="st1" cx="162.5" cy="82.2" r="18.4"/>
	<circle class="st1" cx="90.2" cy="199.4" r="14.1"/>
	<circle class="st1" cx="93.9" cy="63.2" r="17.1"/>
	<circle class="st1" cx="70.1" cy="232.8" r="17.1"/>
	<circle class="st1" cx="118.1" cy="19" r="12.1"/>
	<circle class="st1" cx="156.6" cy="24" r="17.1"/>
	<circle class="st1" cx="218.5" cy="226.6" r="24.1"/>
</g>
</svg>
