<?xml version="1.0" encoding="utf-8"?>
<!-- Generator: Adobe Illustrator 23.0.3, SVG Export Plug-In . SVG Version: 6.00 Build 0)  -->
<svg version="1.1" id="Capa_1" xmlns="http://www.w3.org/2000/svg" xmlns:xlink="http://www.w3.org/1999/xlink" x="0px" y="0px"
	 viewBox="0 0 333.1 595.3" style="enable-background:new 0 0 333.1 595.3;" xml:space="preserve">
<g>
	<g>
		<defs>
			<polygon id="SVGID_5_" points="15.1,13.8 31.3,561.9 266.7,581.5 318,47.3 			"/>
		</defs>
		<clipPath id="SVGID_6_">
			<use xlink:href="#SVGID_5_"  style="overflow:visible;"/>
		</clipPath>
		<g class="st0">
			<rect x="-6.3" y="-1" class="st1" width="331.4" height="595.3"/>
			<rect x="1.5" y="-2.1" class="st1" width="326.2" height="608.8"/>
			<g>
				<circle class="st2" cx="183.4" cy="328.6" r="10.2"/>
				<circle class="st2" cx="186.5" cy="303.8" r="13.5"/>
				<circle class="st2" cx="22.6" cy="208.7" r="13.5"/>
				<circle class="st2" cx="231.1" cy="347.5" r="13.5"/>
				<circle class="st2" cx="233.5" cy="499.8" r="11.2"/>
				<circle class="st2" cx="287.9" cy="352.2" r="13.5"/>
				<circle class="st2" cx="287.9" cy="427.1" r="13.5"/>
				<circle class="st2" cx="183.4" cy="553.5" r="10.2"/>
				<circle class="st2" cx="147.2" cy="354.8" r="5.4"/>
				<circle class="st2" cx="140.2" cy="328.6" r="5.4"/>
				<circle class="st2" cx="115.6" cy="288.4" r="5.4"/>
				<circle class="st2" cx="157.4" cy="288.4" r="5.4"/>
				<circle class="st2" cx="186.5" cy="528.6" r="13.5"/>
				<circle class="st2" cx="231.1" cy="572.4" r="13.5"/>
				<circle class="st2" cx="146.9" cy="80.3" r="6.9"/>
				<circle class="st2" cx="150.3" cy="191.6" r="6.9"/>
				<circle class="st2" cx="203.2" cy="94.9" r="6.9"/>
				<circle class="st2" cx="182.8" cy="50" r="13.5"/>
				<circle class="st2" cx="227.5" cy="93.8" r="13.5"/>
				<circle class="st3" cx="297" cy="529.1" r="6.4"/>
				<circle class="st2" cx="288.9" cy="508.3" r="13.5"/>
				<circle class="st2" cx="287.7" cy="32.1" r="13.5"/>
				<circle class="st2" cx="285.2" cy="104.7" r="13.5"/>
				<circle class="st3" cx="235.5" cy="264.5" r="6.4"/>
				<circle class="st2" cx="179.7" cy="224.8" r="10.2"/>
				<circle class="st2" cx="182.8" cy="199.9" r="13.5"/>
				
					<ellipse transform="matrix(0.1602 -0.9871 0.9871 0.1602 -49.4947 429.226)" class="st2" cx="227.5" cy="243.7" rx="13.5" ry="13.5"/>
				
					<ellipse transform="matrix(9.089721e-03 -1 1 9.089721e-03 48.4361 75.0784)" class="st2" cx="62.1" cy="13.1" rx="10.2" ry="10.2"/>
				<circle class="st2" cx="182.8" cy="274.9" r="13.5"/>
				<circle class="st2" cx="263.5" cy="261.4" r="13.5"/>
				<circle class="st2" cx="282.2" cy="153.6" r="13.5"/>
				<circle class="st2" cx="18.5" cy="89.5" r="13.5"/>
				<circle class="st2" cx="308.5" cy="133.2" r="13.5"/>
				<circle class="st2" cx="282.2" cy="228.6" r="13.5"/>
				<circle class="st2" cx="98.4" cy="300.7" r="10.2"/>
				<circle class="st2" cx="50.7" cy="319.6" r="13.5"/>
				<circle class="st2" cx="98.4" cy="375.6" r="10.2"/>
				<circle class="st2" cx="95.3" cy="350.8" r="13.5"/>
				<circle class="st2" cx="50.7" cy="394.5" r="13.5"/>
				<circle class="st2" cx="98.4" cy="450.6" r="10.2"/>
				<circle class="st2" cx="95.3" cy="425.7" r="13.5"/>
				<circle class="st2" cx="50.7" cy="469.5" r="13.5"/>
				<circle class="st2" cx="98.4" cy="525.5" r="10.2"/>
				<circle class="st2" cx="122.4" cy="333.1" r="10.2"/>
				<circle class="st2" cx="135.9" cy="288.4" r="10.2"/>
				<circle class="st2" cx="95.3" cy="500.7" r="13.5"/>
				<circle class="st2" cx="50.7" cy="544.4" r="13.5"/>
				<circle class="st2" cx="99.7" cy="47" r="10.2"/>
				<circle class="st2" cx="97.8" cy="573.3" r="13.5"/>
				<circle class="st2" cx="51.9" cy="65.9" r="13.5"/>
				<circle class="st2" cx="99.7" cy="121.9" r="10.2"/>
				<circle class="st2" cx="96.6" cy="97" r="13.5"/>
				<circle class="st2" cx="51.9" cy="140.8" r="13.5"/>
				<circle class="st2" cx="99.7" cy="196.9" r="10.2"/>
				
					<ellipse transform="matrix(9.089785e-03 -1 1 9.089785e-03 23.9022 41.3205)" class="st2" cx="32.8" cy="8.6" rx="10.2" ry="10.2"/>
				<circle class="st2" cx="51.9" cy="215.8" r="13.5"/>
				<circle class="st2" cx="99.7" cy="271.8" r="10.2"/>
				<circle class="st2" cx="123.6" cy="79.4" r="10.2"/>
				<circle class="st2" cx="96.6" cy="246.9" r="13.5"/>
				<circle class="st2" cx="93.3" cy="13.8" r="13.5"/>
				<circle class="st3" cx="156" cy="337.1" r="10.2"/>
				<circle class="st3" cx="203.7" cy="350.1" r="10.2"/>
				<circle class="st3" cx="209.4" cy="326.1" r="13.5"/>
				
					<ellipse transform="matrix(0.2298 -0.9732 0.9732 0.2298 -320.0945 631.9433)" class="st3" cx="239.2" cy="518.2" rx="6.4" ry="6.4"/>
				<circle class="st3" cx="239.2" cy="369.9" r="6.4"/>
				<circle class="st3" cx="260.4" cy="354.8" r="10.2"/>
				<circle class="st3" cx="266.1" cy="330.8" r="13.5"/>
				<circle class="st3" cx="263.8" cy="429.7" r="6.8"/>
				<circle class="st3" cx="254.2" cy="461.6" r="6.8"/>
				<circle class="st3" cx="215" cy="504.3" r="5.6"/>
				<circle class="st3" cx="115.6" cy="380.6" r="5.6"/>
				<circle class="st3" cx="296" cy="449.5" r="6.4"/>
				<circle class="st3" cx="296" cy="374.5" r="6.4"/>
				<circle class="st3" cx="266.1" cy="405.7" r="13.5"/>
				<circle class="st3" cx="266.1" cy="480.7" r="13.5"/>
				<circle class="st3" cx="157.4" cy="572.4" r="10.2"/>
				<circle class="st3" cx="203.7" cy="575" r="10.2"/>
				<circle class="st3" cx="209.4" cy="551" r="13.5"/>
				<circle class="st3" cx="205.7" cy="72.4" r="13.5"/>
				
					<ellipse transform="matrix(0.3554 -0.9347 0.9347 0.3554 -309.0458 573.6725)" class="st3" cx="261.4" cy="510.9" rx="10.2" ry="10.2"/>
				<circle class="st3" cx="260.2" cy="34.7" r="10.2"/>
				<circle class="st3" cx="267.1" cy="561.8" r="13.5"/>
				<circle class="st3" cx="257.8" cy="107.3" r="10.2"/>
				<circle class="st3" cx="263.5" cy="83.2" r="13.5"/>
				<circle class="st3" cx="235.5" cy="191.1" r="6.4"/>
				<circle class="st3" cx="235.5" cy="116.2" r="6.4"/>
				<circle class="st3" cx="258" cy="149.8" r="6.4"/>
				<circle class="st3" cx="286.7" cy="130.5" r="6.4"/>
				<circle class="st3" cx="150.3" cy="241.5" r="10.2"/>
				<circle class="st3" cx="200" cy="246.3" r="10.2"/>
				<circle class="st3" cx="205.7" cy="222.3" r="13.5"/>
				
					<ellipse transform="matrix(3.327795e-02 -0.9994 0.9994 3.327795e-02 -33.9932 80.8562)" class="st3" cx="24.8" cy="58" rx="10.2" ry="10.2"/>
				<circle class="st3" cx="304.1" cy="247.8" r="10.2"/>
				<circle class="st3" cx="242" cy="284.6" r="13.5"/>
				<circle class="st3" cx="290.2" cy="174.5" r="6.4"/>
				<circle class="st3" cx="263.5" cy="203.3" r="6.4"/>
				<circle class="st3" cx="244.5" cy="133.2" r="6.7"/>
				<circle class="st3" cx="254.7" cy="231.2" r="10.2"/>
				<circle class="st3" cx="263.5" cy="133.2" r="7.8"/>
				<circle class="st3" cx="125.8" cy="309.1" r="10.2"/>
				<circle class="st3" cx="78.1" cy="322.2" r="10.2"/>
				<circle class="st3" cx="72.4" cy="298.2" r="13.5"/>
				<circle class="st3" cx="22.6" cy="472.1" r="13.5"/>
				<circle class="st3" cx="18.5" cy="302.1" r="13.5"/>
				<circle class="st3" cx="78.1" cy="397.1" r="10.2"/>
				<circle class="st3" cx="42.6" cy="416.9" r="6.4"/>
				<circle class="st3" cx="42.6" cy="490.3" r="6.4"/>
				<circle class="st3" cx="314.9" cy="341.9" r="6.4"/>
				<circle class="st3" cx="42.6" cy="341.9" r="6.4"/>
				<circle class="st3" cx="72.4" cy="373.1" r="13.5"/>
				<circle class="st3" cx="78.1" cy="472.1" r="10.2"/>
				<circle class="st3" cx="32" cy="562.2" r="10.2"/>
				<circle class="st3" cx="72.4" cy="448.1" r="13.5"/>
				<circle class="st3" cx="128.1" cy="547.9" r="13.3"/>
				<circle class="st3" cx="314.9" cy="369.9" r="13.3"/>
				<circle class="st3" cx="78.1" cy="547" r="10.2"/>
				<circle class="st3" cx="72.4" cy="523" r="13.5"/>
				<circle class="st3" cx="22.6" cy="332.3" r="13.5"/>
				<circle class="st3" cx="22.6" cy="397.1" r="13.5"/>
				<circle class="st3" cx="127" cy="55.4" r="10.2"/>
				<circle class="st3" cx="79.4" cy="68.5" r="10.2"/>
				<circle class="st3" cx="73.7" cy="44.4" r="13.5"/>
				<circle class="st3" cx="79.4" cy="143.4" r="10.2"/>
				<circle class="st3" cx="43.8" cy="163.2" r="6.4"/>
				<circle class="st3" cx="43.8" cy="236.6" r="6.4"/>
				<circle class="st3" cx="22.6" cy="119.4" r="6.4"/>
				<circle class="st3" cx="43.8" cy="88.2" r="6.4"/>
				<circle class="st3" cx="73.7" cy="119.4" r="13.5"/>
				<circle class="st3" cx="129.1" cy="213.5" r="10.2"/>
				<circle class="st3" cx="79.4" cy="218.3" r="10.2"/>
				<circle class="st3" cx="73.7" cy="196.3" r="11.6"/>
				<circle class="st3" cx="179.7" cy="3" r="10.2"/>
				<circle class="st3" cx="143.4" cy="3" r="10.2"/>
				<circle class="st3" cx="252.8" cy="3" r="10.2"/>
				<circle class="st3" cx="283.8" cy="3" r="10.2"/>
				<circle class="st3" cx="24.8" cy="141.1" r="10.2"/>
				<circle class="st3" cx="73.7" cy="269.3" r="13.5"/>
				<circle class="st4" cx="214" cy="300.4" r="10.2"/>
				<circle class="st4" cx="249.4" cy="385.8" r="10.2"/>
				<circle class="st4" cx="178.4" cy="349.4" r="10.2"/>
				<circle class="st4" cx="157.4" cy="309.7" r="13.5"/>
				<circle class="st4" cx="239.2" cy="317.3" r="13.5"/>
				<circle class="st4" cx="270.8" cy="305" r="10.2"/>
				<circle class="st4" cx="296" cy="322" r="13.5"/>
				<circle class="st4" cx="270.8" cy="380" r="10.2"/>
				<circle class="st4" cx="296" cy="396.9" r="13.5"/>
				<circle class="st4" cx="270.8" cy="454.9" r="10.2"/>
				<circle class="st4" cx="296" cy="471.8" r="13.5"/>
				<circle class="st4" cx="214" cy="525.2" r="10.2"/>
				<circle class="st4" cx="160.8" cy="517.7" r="10.2"/>
				<circle class="st4" cx="179.6" cy="575" r="10.2"/>
				<circle class="st4" cx="157.4" cy="543.3" r="13.5"/>
				<circle class="st4" cx="239.2" cy="542.1" r="13.5"/>
				<circle class="st4" cx="210.4" cy="46.7" r="10.2"/>
				<circle class="st4" cx="153.7" cy="55.9" r="13.5"/>
				<circle class="st4" cx="235.5" cy="63.6" r="13.5"/>
				<circle class="st4" cx="271.8" cy="536.1" r="10.2"/>
				<circle class="st4" cx="297" cy="553" r="13.5"/>
				<circle class="st4" cx="268.1" cy="57.5" r="10.2"/>
				<circle class="st4" cx="293.3" cy="74.4" r="13.5"/>
				<circle class="st4" cx="210.4" cy="196.6" r="10.2"/>
				<circle class="st4" cx="175.9" cy="246.3" r="10.2"/>
				<circle class="st4" cx="155.7" cy="214.7" r="13.5"/>
				<circle class="st4" cx="235.5" cy="213.5" r="13.5"/>
				<circle class="st4" cx="210.4" cy="271.5" r="10.2"/>
				<circle class="st4" cx="22.6" cy="235.8" r="10.2"/>
				
					<ellipse transform="matrix(0.1602 -0.9871 0.9871 0.1602 -128.557 376.6994)" class="st4" cx="157.1" cy="263.9" rx="10.2" ry="10.2"/>
				<circle class="st4" cx="196.4" cy="26.7" r="10.2"/>
				<circle class="st4" cx="229.1" cy="22.1" r="13.5"/>
				<circle class="st4" cx="213.7" cy="-5" r="13.5"/>
				<circle class="st4" cx="290.5" cy="275.8" r="13.5"/>
				<circle class="st4" cx="290.2" cy="198.4" r="13.5"/>
				<circle class="st4" cx="102.2" cy="322.2" r="10.2"/>
				<circle class="st4" cx="130.8" cy="585.1" r="13.5"/>
				<circle class="st4" cx="42.6" cy="289.4" r="13.5"/>
				<circle class="st4" cx="67.8" cy="347.4" r="10.2"/>
				<circle class="st4" cx="102.2" cy="397.1" r="10.2"/>
				<circle class="st4" cx="124.4" cy="359.6" r="13.5"/>
				<circle class="st4" cx="15.1" cy="269.3" r="13.5"/>
				<circle class="st4" cx="42.6" cy="364.3" r="13.5"/>
				<circle class="st4" cx="67.8" cy="422.3" r="10.2"/>
				<circle class="st4" cx="102.2" cy="472.1" r="10.2"/>
				<circle class="st4" cx="42.6" cy="439.2" r="13.5"/>
				<circle class="st4" cx="67.8" cy="497.3" r="10.2"/>
				<circle class="st4" cx="122.4" cy="489.2" r="8.5"/>
				<circle class="st4" cx="102.2" cy="547" r="10.2"/>
				<circle class="st4" cx="124.4" cy="515.4" r="13.5"/>
				<circle class="st4" cx="42.6" cy="514.2" r="13.5"/>
				<circle class="st4" cx="70.2" cy="569.9" r="10.2"/>
				<circle class="st4" cx="103.5" cy="68.5" r="10.2"/>
				<circle class="st4" cx="125.7" cy="28" r="13.5"/>
				<circle class="st4" cx="43.8" cy="35.6" r="13.5"/>
				<circle class="st4" cx="69" cy="93.7" r="10.2"/>
				<circle class="st4" cx="123.2" cy="103.8" r="10.2"/>
				<circle class="st4" cx="125.7" cy="191.6" r="7.7"/>
				<circle class="st4" cx="43.8" cy="110.6" r="13.5"/>
				<circle class="st4" cx="66.8" cy="166.4" r="8"/>
				<circle class="st4" cx="103.5" cy="218.3" r="10.2"/>
				<circle class="st4" cx="43.8" cy="185.5" r="13.5"/>
				<circle class="st4" cx="69" cy="243.5" r="10.2"/>
				<circle class="st4" cx="122.3" cy="236" r="10.2"/>
				<circle class="st4" cx="18.5" cy="28" r="10.2"/>
				<circle class="st4" cx="159.2" cy="24.5" r="10.2"/>
				<circle class="st4" cx="125.7" cy="261.7" r="13.5"/>
				<circle class="st4" cx="18.5" cy="169.6" r="13.5"/>
				<circle class="st4" cx="43.8" cy="260.5" r="13.5"/>
			</g>
		</g>
	</g>
</g>
</svg>
