<?xml version="1.0" encoding="utf-8"?>
<!-- Generator: Adobe Illustrator 23.0.3, SVG Export Plug-In . SVG Version: 6.00 Build 0)  -->
<svg version="1.1" id="Capa_1" xmlns="http://www.w3.org/2000/svg" xmlns:xlink="http://www.w3.org/1999/xlink" x="0px" y="0px"
	 viewBox="0 0 333.1 595.3" style="enable-background:new 0 0 333.1 595.3;" xml:space="preserve">
<g>
	<g>
		<defs>
			<polygon id="SVGID_5_" points="12.6,8.5 29.1,566.9 268.9,586.8 321.1,42.6 			"/>
		</defs>
		<clipPath id="SVGID_6_">
			<use xlink:href="#SVGID_5_"  style="overflow:visible;"/>
		</clipPath>
		<g class="st0">
			<rect x="3" y="-41.7" class="st1" width="311.6" height="664.5"/>
			<g>
				<g>
					<circle class="st2" cx="180.6" cy="58.5" r="10.3"/>
					<circle class="st2" cx="183.7" cy="33.2" r="13.8"/>
					<circle class="st2" cx="229.2" cy="77.8" r="13.8"/>
					<circle class="st2" cx="231.6" cy="232.9" r="11.4"/>
					<circle class="st2" cx="287.1" cy="82.5" r="13.8"/>
					<circle class="st2" cx="287.1" cy="158.9" r="13.8"/>
					<circle class="st2" cx="180.6" cy="287.6" r="10.3"/>
					<circle class="st2" cx="143.7" cy="85.1" r="5.5"/>
					
						<ellipse transform="matrix(0.1602 -0.9871 0.9871 0.1602 -104.5398 401.5282)" class="st2" cx="183.7" cy="262.2" rx="13.8" ry="13.8"/>
					<circle class="st2" cx="229.2" cy="306.8" r="13.8"/>
					<circle class="st2" cx="144.7" cy="367" r="7"/>
					<circle class="st2" cx="148.1" cy="480.4" r="7"/>
					<circle class="st2" cx="202" cy="381.9" r="7"/>
					<circle class="st2" cx="181.2" cy="336.2" r="13.8"/>
					<circle class="st2" cx="226.7" cy="380.8" r="13.8"/>
					<circle class="st3" cx="296.3" cy="262.7" r="6.6"/>
					<circle class="st2" cx="288.1" cy="241.5" r="13.8"/>
					<circle class="st2" cx="288.1" cy="317.9" r="13.8"/>
					<circle class="st2" cx="285.6" cy="391.9" r="13.8"/>
					<circle class="st3" cx="234.9" cy="554.7" r="6.6"/>
					<circle class="st2" cx="178.1" cy="514.2" r="10.3"/>
					<circle class="st2" cx="181.2" cy="488.9" r="13.8"/>
					<circle class="st2" cx="226.7" cy="533.5" r="13.8"/>
					<circle class="st2" cx="280.5" cy="579" r="10.3"/>
					<circle class="st2" cx="181.2" cy="565.3" r="13.8"/>
					<circle class="st2" cx="263.4" cy="551.5" r="13.8"/>
					<circle class="st2" cx="282.4" cy="441.7" r="13.8"/>
					<circle class="st2" cx="282.4" cy="518.1" r="13.8"/>
					<circle class="st2" cx="94" cy="30" r="10.3"/>
					<circle class="st2" cx="45.4" cy="49.3" r="13.8"/>
					<circle class="st2" cx="94" cy="106.4" r="10.3"/>
					<circle class="st2" cx="90.9" cy="81.1" r="13.8"/>
					
						<ellipse transform="matrix(0.9951 -9.853759e-02 9.853759e-02 0.9951 -12.1554 5.0849)" class="st2" cx="45.4" cy="125.6" rx="13.8" ry="13.8"/>
					<circle class="st2" cx="94" cy="182.7" r="10.3"/>
					<circle class="st2" cx="90.9" cy="157.4" r="13.8"/>
					<circle class="st2" cx="45.4" cy="202" r="13.8"/>
					
						<ellipse transform="matrix(0.1602 -0.9871 0.9871 0.1602 -176.8115 310.383)" class="st2" cx="94" cy="259.1" rx="10.3" ry="10.3"/>
					<circle class="st2" cx="118.4" cy="63.1" r="10.3"/>
					<circle class="st2" cx="90.9" cy="233.8" r="13.8"/>
					<circle class="st2" cx="45.4" cy="278.3" r="13.8"/>
					<circle class="st2" cx="96.5" cy="333.1" r="10.3"/>
					<circle class="st2" cx="93.4" cy="307.7" r="13.8"/>
					<circle class="st2" cx="47.9" cy="352.3" r="13.8"/>
					<circle class="st2" cx="96.5" cy="409.4" r="10.3"/>
					<circle class="st2" cx="93.4" cy="384.1" r="13.8"/>
					<circle class="st2" cx="47.9" cy="428.7" r="13.8"/>
					<circle class="st2" cx="96.5" cy="485.8" r="10.3"/>
					<circle class="st2" cx="47.9" cy="505" r="13.8"/>
					<circle class="st2" cx="96.5" cy="562.1" r="10.3"/>
					<circle class="st2" cx="120.9" cy="366.1" r="10.3"/>
					<circle class="st2" cx="93.4" cy="536.8" r="13.8"/>
					<circle class="st2" cx="47.9" cy="581.4" r="13.8"/>
				</g>
				<g>
					<circle class="st3" cx="152.7" cy="67.1" r="10.3"/>
					<circle class="st3" cx="201.2" cy="80.4" r="10.3"/>
					<circle class="st3" cx="207.1" cy="55.9" r="13.8"/>
					<circle class="st3" cx="237.4" cy="251.7" r="6.6"/>
					<circle class="st3" cx="237.4" cy="100.5" r="6.6"/>
					<circle class="st3" cx="259.1" cy="85.1" r="10.3"/>
					<circle class="st3" cx="264.9" cy="60.7" r="13.8"/>
					<circle class="st3" cx="262.5" cy="161.5" r="6.9"/>
					<circle class="st3" cx="252.8" cy="194" r="6.9"/>
					<circle class="st3" cx="212.8" cy="237.4" r="5.7"/>
					<circle class="st3" cx="111.5" cy="111.4" r="5.7"/>
					<circle class="st3" cx="295.3" cy="181.6" r="6.6"/>
					<circle class="st3" cx="295.3" cy="105.3" r="6.6"/>
					<circle class="st3" cx="264.9" cy="137" r="13.8"/>
					<circle class="st3" cx="264.9" cy="213.4" r="13.8"/>
					<circle class="st3" cx="154.1" cy="306.8" r="10.3"/>
					<circle class="st3" cx="201.2" cy="309.5" r="10.3"/>
					<circle class="st3" cx="207.1" cy="285" r="13.8"/>
					<circle class="st3" cx="204.5" cy="359" r="13.8"/>
					<circle class="st3" cx="260.1" cy="244.2" r="10.3"/>
					<circle class="st3" cx="260.1" cy="320.5" r="10.3"/>
					<circle class="st3" cx="265.9" cy="296.1" r="13.8"/>
					<circle class="st3" cx="257.6" cy="394.5" r="10.3"/>
					<circle class="st3" cx="263.4" cy="370" r="13.8"/>
					<circle class="st3" cx="234.9" cy="479.9" r="6.6"/>
					<circle class="st3" cx="234.9" cy="403.6" r="6.6"/>
					<circle class="st3" cx="257.8" cy="437.9" r="6.6"/>
					<circle class="st3" cx="287" cy="418.2" r="6.6"/>
					<circle class="st3" cx="148.1" cy="531.2" r="10.3"/>
					<circle class="st3" cx="198.7" cy="536.1" r="10.3"/>
					<circle class="st3" cx="204.5" cy="511.7" r="13.8"/>
					<circle class="st3" cx="20.2" cy="344.3" r="10.3"/>
					<circle class="st3" cx="265.9" cy="586.8" r="10.3"/>
					<circle class="st3" cx="204.5" cy="588" r="13.8"/>
					<circle class="st3" cx="290.7" cy="462.9" r="6.6"/>
					<circle class="st3" cx="263.4" cy="492.4" r="6.6"/>
					<circle class="st3" cx="244.1" cy="421" r="6.8"/>
					<circle class="st3" cx="254.5" cy="520.7" r="10.3"/>
					<circle class="st3" cx="263.4" cy="421" r="8"/>
					<circle class="st3" cx="121.9" cy="38.6" r="10.3"/>
					<circle class="st3" cx="73.4" cy="51.9" r="10.3"/>
					
						<ellipse transform="matrix(0.9999 -1.514630e-02 1.514630e-02 0.9999 -0.4088 1.0255)" class="st3" cx="67.5" cy="27.5" rx="13.8" ry="13.8"/>
					<circle class="st3" cx="16.8" cy="204.6" r="13.8"/>
					<circle class="st3" cx="12.6" cy="31.4" r="13.8"/>
					<circle class="st3" cx="73.4" cy="128.3" r="10.3"/>
					<circle class="st3" cx="37.1" cy="148.4" r="6.6"/>
					<circle class="st3" cx="37.1" cy="223.2" r="6.6"/>
					<circle class="st3" cx="314.6" cy="72.1" r="6.6"/>
					<circle class="st3" cx="37.1" cy="72.1" r="6.6"/>
					<circle class="st3" cx="67.5" cy="103.8" r="13.8"/>
					<circle class="st3" cx="73.4" cy="204.6" r="10.3"/>
					<circle class="st3" cx="26.4" cy="296.5" r="10.3"/>
					<circle class="st3" cx="67.5" cy="180.2" r="13.8"/>
					<circle class="st3" cx="124.2" cy="281.8" r="13.5"/>
					<circle class="st3" cx="314.6" cy="100.5" r="13.5"/>
					<circle class="st3" cx="73.4" cy="281" r="10.3"/>
					<circle class="st3" cx="67.5" cy="256.5" r="13.8"/>
					<circle class="st3" cx="16.8" cy="62.3" r="13.8"/>
					<circle class="st3" cx="16.8" cy="128.3" r="13.8"/>
					<circle class="st3" cx="124.4" cy="341.6" r="10.3"/>
					<circle class="st3" cx="75.9" cy="355" r="10.3"/>
					<circle class="st3" cx="70" cy="330.5" r="13.8"/>
					<circle class="st3" cx="75.9" cy="431.3" r="10.3"/>
					<circle class="st3" cx="39.6" cy="451.4" r="6.6"/>
					<circle class="st3" cx="39.6" cy="526.2" r="6.6"/>
					<circle class="st3" cx="39.6" cy="375.1" r="6.6"/>
					<circle class="st3" cx="70" cy="406.8" r="13.8"/>
					<circle class="st3" cx="126.5" cy="502.8" r="10.3"/>
					<circle class="st3" cx="75.9" cy="507.7" r="10.3"/>
					<circle class="st3" cx="70" cy="485.2" r="11.8"/>
					<circle class="st3" cx="123" cy="581.4" r="10.3"/>
					<circle class="st3" cx="20.2" cy="428.9" r="10.3"/>
					<circle class="st3" cx="70" cy="559.5" r="13.8"/>
				</g>
				<g>
					<circle class="st4" cx="211.8" cy="29.7" r="10.3"/>
					<circle class="st4" cx="247.9" cy="116.7" r="10.3"/>
					<circle class="st4" cx="175.5" cy="79.6" r="10.3"/>
					<circle class="st4" cx="154.1" cy="39.2" r="13.8"/>
					<circle class="st4" cx="237.4" cy="47" r="13.8"/>
					<circle class="st4" cx="269.6" cy="34.5" r="10.3"/>
					<circle class="st4" cx="295.3" cy="51.7" r="13.8"/>
					<circle class="st4" cx="269.6" cy="110.8" r="10.3"/>
					<circle class="st4" cx="295.3" cy="128.1" r="13.8"/>
					<circle class="st4" cx="269.6" cy="187.2" r="10.3"/>
					<circle class="st4" cx="295.3" cy="204.4" r="13.8"/>
					<circle class="st4" cx="211.8" cy="258.8" r="10.3"/>
					
						<ellipse transform="matrix(0.1602 -0.9871 0.9871 0.1602 -115.5864 366.3445)" class="st4" cx="157.5" cy="251.1" rx="10.3" ry="10.3"/>
					<circle class="st4" cx="176.7" cy="309.5" r="10.3"/>
					<circle class="st4" cx="154.1" cy="277.2" r="13.8"/>
					<circle class="st4" cx="237.4" cy="276" r="13.8"/>
					<circle class="st4" cx="209.3" cy="332.8" r="10.3"/>
					<circle class="st4" cx="151.6" cy="342.2" r="13.8"/>
					<circle class="st4" cx="234.9" cy="350" r="13.8"/>
					<circle class="st4" cx="270.7" cy="269.9" r="10.3"/>
					<circle class="st4" cx="296.3" cy="287.1" r="13.8"/>
					<circle class="st4" cx="268.2" cy="343.8" r="10.3"/>
					<circle class="st4" cx="293.8" cy="361.1" r="13.8"/>
					<circle class="st4" cx="209.3" cy="485.5" r="10.3"/>
					<circle class="st4" cx="174.2" cy="536.1" r="10.3"/>
					
						<ellipse transform="matrix(0.3827 -0.9239 0.9239 0.3827 -370.7231 452.9737)" class="st4" cx="153.6" cy="503.9" rx="13.8" ry="13.8"/>
					<circle class="st4" cx="234.9" cy="502.7" r="13.8"/>
					<circle class="st4" cx="209.3" cy="561.8" r="10.3"/>
					<circle class="st4" cx="155" cy="554.1" r="10.3"/>
					<circle class="st4" cx="174.2" cy="612.5" r="10.3"/>
					<circle class="st4" cx="151.6" cy="580.3" r="13.8"/>
					<circle class="st4" cx="234.9" cy="579" r="13.8"/>
					<circle class="st4" cx="290.7" cy="487.3" r="13.8"/>
					<circle class="st4" cx="97.9" cy="51.9" r="10.3"/>
					<circle class="st4" cx="120.5" cy="10.7" r="13.8"/>
					
						<ellipse transform="matrix(0.9999 -1.020249e-02 1.020249e-02 0.9999 -0.1868 0.3795)" class="st4" cx="37.1" cy="18.5" rx="13.8" ry="13.8"/>
					<circle class="st4" cx="62.8" cy="77.6" r="10.3"/>
					<circle class="st4" cx="97.9" cy="128.3" r="10.3"/>
					<circle class="st4" cx="120.5" cy="90" r="13.8"/>
					<circle class="st4" cx="37.1" cy="94.8" r="13.8"/>
					<circle class="st4" cx="62.8" cy="154" r="10.3"/>
					<circle class="st4" cx="97.9" cy="204.6" r="10.3"/>
					<circle class="st4" cx="37.1" cy="171.2" r="13.8"/>
					<circle class="st4" cx="62.8" cy="230.3" r="10.3"/>
					<circle class="st4" cx="118.4" cy="222.1" r="8.6"/>
					<circle class="st4" cx="97.9" cy="281" r="10.3"/>
					<circle class="st4" cx="120.5" cy="248.8" r="13.8"/>
					<circle class="st4" cx="37.1" cy="247.5" r="13.8"/>
					<circle class="st4" cx="65.3" cy="304.3" r="10.3"/>
					<circle class="st4" cx="100.4" cy="355" r="10.3"/>
					<circle class="st4" cx="123" cy="313.7" r="13.8"/>
					<circle class="st4" cx="39.6" cy="321.5" r="13.8"/>
					<circle class="st4" cx="65.3" cy="380.6" r="10.3"/>
					<circle class="st4" cx="120.5" cy="391" r="10.3"/>
					<circle class="st4" cx="123" cy="480.4" r="7.9"/>
					<circle class="st4" cx="39.6" cy="397.9" r="13.8"/>
					<circle class="st4" cx="63.1" cy="454.7" r="8.1"/>
					<circle class="st4" cx="100.4" cy="507.7" r="10.3"/>
					<circle class="st4" cx="39.6" cy="474.2" r="13.8"/>
					<circle class="st4" cx="65.3" cy="533.3" r="10.3"/>
					<circle class="st4" cx="119.6" cy="525.6" r="10.3"/>
					<circle class="st4" cx="100.4" cy="584" r="10.3"/>
					<circle class="st4" cx="123" cy="551.8" r="13.8"/>
					<circle class="st4" cx="39.6" cy="550.6" r="13.8"/>
				</g>
			</g>
		</g>
	</g>
</g>
</svg>
