<?xml version="1.0" encoding="utf-8"?>
<!-- Generator: Adobe Illustrator 23.0.3, SVG Export Plug-In . SVG Version: 6.00 Build 0)  -->
<svg version="1.1" id="Capa_1" xmlns="http://www.w3.org/2000/svg" xmlns:xlink="http://www.w3.org/1999/xlink" x="0px" y="0px"
	 viewBox="0 0 333.1 595.3" style="enable-background:new 0 0 333.1 595.3;" xml:space="preserve">
<g>
	<g>
		<defs>
			<polygon id="SVGID_3_" points="45.1,32.6 45.1,587.3 288.1,587.3 273.6,32.6 166.6,8 			"/>
		</defs>
		<clipPath id="SVGID_4_">
			<use xlink:href="#SVGID_3_"  style="overflow:visible;"/>
		</clipPath>
		<g class="st0">
			<rect x="1.6" y="-23.9" class="st1" width="338.2" height="663.7"/>
			<circle class="st2" cx="149.8" cy="37.6" r="10.3"/>
			<circle class="st2" cx="147.2" cy="12.4" r="13.7"/>
			<circle class="st2" cx="101.2" cy="55.9" r="13.7"/>
			<circle class="st2" cx="96" cy="209.8" r="11.3"/>
			<circle class="st2" cx="43.7" cy="59.5" r="13.7"/>
			<circle class="st2" cx="42.3" cy="135.3" r="13.7"/>
			<circle class="st2" cx="143.9" cy="316.8" r="10.3"/>
			<circle class="st2" cx="185.9" cy="64.7" r="5.5"/>
			<circle class="st2" cx="143.1" cy="239.8" r="13.7"/>
			
				<ellipse transform="matrix(3.327795e-02 -0.9994 0.9994 3.327795e-02 -243.3304 420.2083)" class="st2" cx="95.6" cy="335.9" rx="13.7" ry="13.7"/>
			<circle class="st2" cx="179.5" cy="395.7" r="7"/>
			<circle class="st2" cx="172.7" cy="316.8" r="7"/>
			<circle class="st2" cx="176.1" cy="508.3" r="7"/>
			<circle class="st2" cx="122.6" cy="410.5" r="7"/>
			<circle class="st2" cx="143.2" cy="365.1" r="13.7"/>
			
				<ellipse transform="matrix(3.327795e-02 -0.9994 0.9994 3.327795e-02 -314.4696 493.661)" class="st2" cx="98" cy="409.4" rx="13.7" ry="13.7"/>
			<circle class="st3" cx="31.3" cy="238.3" r="6.5"/>
			<circle class="st2" cx="39.8" cy="217.4" r="13.7"/>
			<circle class="st2" cx="37.1" cy="346.9" r="13.7"/>
			<circle class="st2" cx="39.6" cy="420.4" r="13.7"/>
			<circle class="st3" cx="89.9" cy="582.1" r="6.5"/>
			<circle class="st3" cx="139.9" cy="585.7" r="6.5"/>
			<circle class="st2" cx="146.4" cy="541.9" r="10.3"/>
			<circle class="st2" cx="143.2" cy="516.8" r="13.7"/>
			
				<ellipse transform="matrix(3.327795e-02 -0.9994 0.9994 3.327795e-02 -466.0855 640.3127)" class="st2" cx="98" cy="561.1" rx="13.7" ry="13.7"/>
			<circle class="st2" cx="39.7" cy="-9" r="10.3"/>
			<circle class="st2" cx="138.5" cy="-20.9" r="13.7"/>
			<circle class="st2" cx="61.6" cy="578.9" r="13.7"/>
			
				<ellipse transform="matrix(0.9999 -1.020249e-02 1.020249e-02 0.9999 -4.7918 0.4596)" class="st2" cx="42.7" cy="469.9" rx="13.7" ry="13.7"/>
			
				<ellipse transform="matrix(0.9999 -1.020249e-02 1.020249e-02 0.9999 -5.5662 0.4636)" class="st2" cx="42.7" cy="545.8" rx="13.7" ry="13.7"/>
			<circle class="st2" cx="236.4" cy="5.5" r="15.7"/>
			
				<ellipse transform="matrix(0.1891 -0.982 0.982 0.1891 200.1666 304.1689)" class="st2" cx="284.3" cy="30.9" rx="13.7" ry="13.7"/>
			<circle class="st2" cx="234.9" cy="86.7" r="10.3"/>
			<circle class="st2" cx="238.5" cy="61.6" r="13.7"/>
			
				<ellipse transform="matrix(0.1602 -0.9871 0.9871 0.1602 132.2332 368.7971)" class="st2" cx="282.9" cy="106.7" rx="13.7" ry="13.7"/>
			<circle class="st2" cx="233.6" cy="162.5" r="10.3"/>
			<circle class="st2" cx="237.2" cy="137.4" r="13.7"/>
			
				<ellipse transform="matrix(0.1602 -0.9871 0.9871 0.1602 56.2362 431.0734)" class="st2" cx="281.5" cy="182.5" rx="13.7" ry="13.7"/>
			<circle class="st2" cx="232.2" cy="238.3" r="10.3"/>
			<circle class="st2" cx="211.5" cy="43.2" r="10.3"/>
			<circle class="st2" cx="235.8" cy="213.2" r="13.7"/>
			<circle class="st2" cx="291.8" cy="300.6" r="13.7"/>
			<circle class="st2" cx="227.3" cy="362" r="10.3"/>
			<circle class="st2" cx="230.5" cy="336.8" r="13.7"/>
			<circle class="st2" cx="275.6" cy="381.1" r="13.7"/>
			<circle class="st2" cx="227.3" cy="437.8" r="10.3"/>
			<circle class="st2" cx="230.5" cy="412.7" r="13.7"/>
			<circle class="st2" cx="275.6" cy="456.9" r="13.7"/>
			<circle class="st2" cx="227.3" cy="513.7" r="10.3"/>
			<circle class="st2" cx="275.6" cy="532.8" r="13.7"/>
			<circle class="st2" cx="222.7" cy="-22.5" r="10.3"/>
			<circle class="st2" cx="203.1" cy="394.8" r="10.3"/>
			<circle class="st2" cx="230.5" cy="564.3" r="13.7"/>
			<circle class="st2" cx="270.7" cy="-2.5" r="13.7"/>
			<circle class="st3" cx="177.4" cy="46.6" r="10.3"/>
			<circle class="st3" cx="128.9" cy="59" r="10.3"/>
			<circle class="st3" cx="123.6" cy="34.6" r="13.7"/>
			<circle class="st3" cx="89.9" cy="228.4" r="6.5"/>
			<circle class="st3" cx="92.6" cy="78.3" r="6.5"/>
			<circle class="st3" cx="71.4" cy="62.6" r="10.3"/>
			<circle class="st3" cx="66.1" cy="38.2" r="13.7"/>
			<circle class="st3" cx="66.6" cy="138.4" r="6.9"/>
			<circle class="st3" cx="75.7" cy="170.8" r="6.9"/>
			<circle class="st3" cx="114.7" cy="214.7" r="5.7"/>
			<circle class="st3" cx="217.4" cy="91.4" r="5.7"/>
			<circle class="st3" cx="33.7" cy="157.8" r="6.5"/>
			<circle class="st3" cx="35.1" cy="82" r="6.5"/>
			<circle class="st3" cx="64.7" cy="114.1" r="13.7"/>
			<circle class="st3" cx="63.3" cy="189.9" r="13.7"/>
			<circle class="st3" cx="170.2" cy="335.9" r="10.3"/>
			<circle class="st3" cx="200.1" cy="314.3" r="10.3"/>
			<circle class="st3" cx="123.3" cy="338.6" r="10.3"/>
			<circle class="st3" cx="117.6" cy="314.3" r="13.7"/>
			<circle class="st3" cx="120" cy="387.7" r="13.7"/>
			<circle class="st3" cx="67.6" cy="220.6" r="10.3"/>
			<circle class="st3" cx="64.9" cy="349.5" r="10.3"/>
			<circle class="st3" cx="59.1" cy="325.2" r="13.7"/>
			<circle class="st3" cx="67.4" cy="423" r="10.3"/>
			<circle class="st3" cx="61.6" cy="398.7" r="13.7"/>
			<circle class="st3" cx="89.9" cy="507.8" r="6.5"/>
			<circle class="st3" cx="89.9" cy="432" r="6.5"/>
			<circle class="st3" cx="67.1" cy="466.1" r="6.5"/>
			<circle class="st3" cx="38.1" cy="446.6" r="6.5"/>
			<circle class="st3" cx="176.1" cy="558.8" r="10.3"/>
			<circle class="st3" cx="125.8" cy="563.7" r="10.3"/>
			<circle class="st3" cx="113.8" cy="587.3" r="10.3"/>
			<circle class="st3" cx="120" cy="539.4" r="13.7"/>
			<circle class="st3" cx="115" cy="1.3" r="13.7"/>
			<circle class="st3" cx="34.5" cy="491" r="6.5"/>
			<circle class="st3" cx="61.6" cy="520.2" r="6.5"/>
			<circle class="st3" cx="80.7" cy="449.3" r="6.7"/>
			<circle class="st3" cx="70.5" cy="548.4" r="10.3"/>
			<circle class="st3" cx="61.6" cy="449.3" r="7.9"/>
			<circle class="st3" cx="208.5" cy="18.9" r="10.3"/>
			<circle class="st3" cx="256.4" cy="33" r="10.3"/>
			<circle class="st3" cx="255.1" cy="108.8" r="10.3"/>
			<circle class="st3" cx="290.7" cy="129.4" r="6.5"/>
			<circle class="st3" cx="289.3" cy="203.7" r="6.5"/>
			<circle class="st3" cx="292" cy="53.6" r="6.5"/>
			<circle class="st3" cx="261.3" cy="84.6" r="13.7"/>
			<circle class="st3" cx="253.7" cy="184.6" r="10.3"/>
			<circle class="st3" cx="259.9" cy="160.4" r="13.7"/>
			<circle class="st3" cx="250.3" cy="310.3" r="10.3"/>
			<circle class="st3" cx="265.8" cy="295.4" r="10.3"/>
			<circle class="st3" cx="258.6" cy="236.2" r="13.7"/>
			<circle class="st3" cx="199.7" cy="370.5" r="10.3"/>
			<circle class="st3" cx="247.9" cy="383.7" r="10.3"/>
			<circle class="st3" cx="253.6" cy="359.4" r="13.7"/>
			<circle class="st3" cx="247.9" cy="459.6" r="10.3"/>
			<circle class="st3" cx="283.8" cy="479.6" r="6.5"/>
			<circle class="st3" cx="283.8" cy="553.8" r="6.5"/>
			<circle class="st3" cx="230.5" cy="588.6" r="6.5"/>
			<circle class="st3" cx="283.8" cy="403.7" r="6.5"/>
			<circle class="st3" cx="253.6" cy="435.3" r="13.7"/>
			<circle class="st3" cx="197.6" cy="530.5" r="10.3"/>
			<circle class="st3" cx="247.9" cy="535.4" r="10.3"/>
			<circle class="st3" cx="253.6" cy="513.1" r="11.7"/>
			<circle class="st3" cx="196.1" cy="-3.9" r="10.3"/>
			<circle class="st3" cx="169.6" cy="-6.6" r="10.3"/>
			<circle class="st3" cx="249" cy="-24.6" r="13.7"/>
			<circle class="st4" cx="82" cy="94.2" r="10.3"/>
			<circle class="st4" cx="154.5" cy="58.7" r="10.3"/>
			<circle class="st4" cx="176.5" cy="18.9" r="13.7"/>
			<circle class="st4" cx="93.6" cy="25.1" r="13.7"/>
			<circle class="st4" cx="61.8" cy="12.1" r="10.3"/>
			<circle class="st4" cx="36" cy="28.8" r="13.7"/>
			<circle class="st4" cx="60.5" cy="88" r="10.3"/>
			<circle class="st4" cx="34.7" cy="104.6" r="13.7"/>
			<circle class="st4" cx="59.1" cy="163.8" r="10.3"/>
			<circle class="st4" cx="33.3" cy="180.4" r="13.7"/>
			<circle class="st4" cx="115.3" cy="235.9" r="10.3"/>
			<circle class="st4" cx="169.3" cy="229.2" r="10.3"/>
			<circle class="st4" cx="147.7" cy="338.6" r="10.3"/>
			<circle class="st4" cx="115.3" cy="361.7" r="10.3"/>
			<circle class="st4" cx="172.7" cy="371.1" r="13.7"/>
			
				<ellipse transform="matrix(3.327795e-02 -0.9994 0.9994 3.327795e-02 -291.717 455.9838)" class="st4" cx="89.9" cy="378.8" rx="13.7" ry="13.7"/>
			<circle class="st4" cx="56.6" cy="245.9" r="10.3"/>
			<circle class="st4" cx="56.9" cy="372.7" r="10.3"/>
			
				<ellipse transform="matrix(0.9999 -1.020249e-02 1.020249e-02 0.9999 -3.9752 0.3401)" class="st4" cx="31.4" cy="389.8" rx="13.7" ry="13.7"/>
			<circle class="st4" cx="115.3" cy="513.3" r="10.3"/>
			<circle class="st4" cx="150.2" cy="563.7" r="10.3"/>
			<circle class="st4" cx="170.6" cy="531.7" r="13.7"/>
			
				<ellipse transform="matrix(3.327795e-02 -0.9994 0.9994 3.327795e-02 -443.3329 602.6356)" class="st4" cx="89.9" cy="530.5" rx="13.7" ry="13.7"/>
			<circle class="st4" cx="110.7" cy="-24.8" r="10.3"/>
			<circle class="st4" cx="169.2" cy="581.5" r="10.3"/>
			
				<ellipse transform="matrix(9.089776e-03 -1 1 9.089776e-03 -545.0259 608.3728)" class="st4" cx="34.5" cy="579.2" rx="10.3" ry="10.3"/>
			<circle class="st4" cx="85" cy="-8.2" r="13.7"/>
			
				<ellipse transform="matrix(9.089787e-03 -1 1 9.089787e-03 -481.0286 544.9545)" class="st4" cx="34.5" cy="515.2" rx="13.7" ry="13.7"/>
			<circle class="st4" cx="232.1" cy="32.5" r="10.3"/>
			<circle class="st4" cx="300.2" cy="-2" r="13.7"/>
			
				<ellipse transform="matrix(0.9951 -9.853765e-02 9.853765e-02 0.9951 -27.1631 15.3928)" class="st2" cx="142.3" cy="282.7" rx="13.7" ry="13.7"/>
			
				<ellipse transform="matrix(0.9999 -1.514628e-02 1.514628e-02 0.9999 -3.9535 0.5578)" class="st2" cx="34.9" cy="261.3" rx="10.3" ry="10.3"/>
			<circle class="st2" cx="231.5" cy="275.8" r="15.7"/>
			<circle class="st2" cx="265.8" cy="267.8" r="13.7"/>
			<circle class="st3" cx="117.1" cy="262.8" r="13.7"/>
			<circle class="st3" cx="203.6" cy="289.2" r="10.3"/>
			<circle class="st3" cx="191.2" cy="266.4" r="10.3"/>
			<circle class="st3" cx="164.7" cy="263.7" r="10.3"/>
			<circle class="st3" cx="212.4" cy="258.8" r="10"/>
			<circle class="st4" cx="171.6" cy="289.2" r="13.7"/>
			
				<ellipse transform="matrix(3.327795e-02 -0.9994 0.9994 3.327795e-02 -209.5232 374.1599)" class="st4" cx="88.7" cy="295.4" rx="13.7" ry="13.7"/>
			<circle class="st4" cx="57" cy="282.4" r="10.3"/>
			<circle class="st4" cx="31.2" cy="299.1" r="13.7"/>
			<circle class="st4" cx="185.2" cy="245" r="7.6"/>
			
				<ellipse transform="matrix(4.531446e-02 -0.999 0.999 4.531446e-02 -169.7682 326.332)" class="st4" cx="85.9" cy="252" rx="13.7" ry="13.7"/>
			<circle class="st4" cx="295.4" cy="268.3" r="13.7"/>
			<circle class="st4" cx="266.5" cy="58.7" r="10.3"/>
			<circle class="st4" cx="230.7" cy="108.4" r="10.3"/>
			<circle class="st4" cx="208.9" cy="70" r="13.7"/>
			
				<ellipse transform="matrix(0.1735 -0.9848 0.9848 0.1735 165.9339 350.0982)" class="st4" cx="291.6" cy="76.2" rx="13.7" ry="13.7"/>
			<circle class="st4" cx="265.1" cy="134.5" r="10.3"/>
			<circle class="st4" cx="229.3" cy="184.2" r="10.3"/>
			
				<ellipse transform="matrix(0.1602 -0.9871 0.9871 0.1602 93.6341 414.2292)" class="st4" cx="290.3" cy="152.1" rx="13.7" ry="13.7"/>
			<circle class="st4" cx="263.7" cy="210.3" r="10.3"/>
			<circle class="st4" cx="208.6" cy="201.1" r="8.6"/>
			<circle class="st4" cx="226" cy="310.3" r="10.3"/>
			<circle class="st4" cx="206.1" cy="227.6" r="13.7"/>
			
				<ellipse transform="matrix(0.1602 -0.9871 0.9871 0.1602 17.6371 476.5055)" class="st4" cx="288.9" cy="227.9" rx="13.7" ry="13.7"/>
			<circle class="st4" cx="258.3" cy="333.4" r="10.3"/>
			<circle class="st4" cx="279.5" cy="323.8" r="10.3"/>
			<circle class="st4" cx="223.5" cy="383.7" r="10.3"/>
			<circle class="st4" cx="201" cy="342.8" r="13.7"/>
			<circle class="st4" cx="283.8" cy="350.5" r="13.7"/>
			<circle class="st4" cx="258.3" cy="409.2" r="10.3"/>
			<circle class="st4" cx="203.5" cy="419.5" r="10.3"/>
			<circle class="st4" cx="201" cy="508.3" r="7.8"/>
			<circle class="st4" cx="283.8" cy="426.4" r="13.7"/>
			<circle class="st4" cx="260.6" cy="482.8" r="8"/>
			<circle class="st4" cx="223.5" cy="535.4" r="10.3"/>
			<circle class="st4" cx="283.8" cy="502.2" r="13.7"/>
			<circle class="st4" cx="258.3" cy="560.9" r="10.3"/>
			<circle class="st4" cx="204.5" cy="553.2" r="10.3"/>
			<circle class="st4" cx="253.6" cy="585.7" r="10.3"/>
			<circle class="st4" cx="201" cy="579.2" r="13.7"/>
			<circle class="st4" cx="283.8" cy="578" r="13.7"/>
		</g>
	</g>
</g>
</svg>
