<?xml version="1.0" encoding="utf-8"?>
<!-- Generator: Adobe Illustrator 23.0.3, SVG Export Plug-In . SVG Version: 6.00 Build 0)  -->
<svg version="1.1" id="Capa_1" xmlns="http://www.w3.org/2000/svg" xmlns:xlink="http://www.w3.org/1999/xlink" x="0px" y="0px"
	 viewBox="0 0 333.1 595.3" style="enable-background:new 0 0 333.1 595.3;" xml:space="preserve">
<g>
	<g>
		<defs>
			<polygon id="SVGID_3_" points="41.8,31.1 41.8,585.8 284.8,585.8 270.3,31.1 163.3,6.5 			"/>
		</defs>
		<clipPath id="SVGID_4_">
			<use xlink:href="#SVGID_3_"  style="overflow:visible;"/>
		</clipPath>
		<g class="st0">
			<rect x="11.9" y="-39.8" class="st1" width="324.6" height="678.1"/>
			<rect x="-1.7" y="-25.4" class="st1" width="338.2" height="663.7"/>
			<circle class="st2" cx="152.3" cy="350.8" r="10.3"/>
			<circle class="st2" cx="149.1" cy="325.6" r="13.7"/>
			<circle class="st2" cx="104" cy="369.9" r="13.7"/>
			<circle class="st2" cx="101.6" cy="524" r="11.3"/>
			
				<ellipse transform="matrix(9.089787e-03 -1 1 9.089787e-03 -328.5072 417.693)" class="st2" cx="46.5" cy="374.6" rx="13.7" ry="13.7"/>
			
				<ellipse transform="matrix(9.089787e-03 -1 1 9.089787e-03 -404.304 492.804)" class="st2" cx="46.5" cy="450.4" rx="13.7" ry="13.7"/>
			<circle class="st2" cx="140.6" cy="16.7" r="10.3"/>
			<circle class="st2" cx="188.8" cy="377.2" r="5.5"/>
			<circle class="st2" cx="149.1" cy="553.1" r="13.7"/>
			<circle class="st2" cx="92.3" cy="35.8" r="13.7"/>
			<circle class="st2" cx="176.2" cy="95.6" r="7"/>
			<circle class="st2" cx="172.8" cy="208.2" r="7"/>
			<circle class="st2" cx="119.3" cy="110.4" r="7"/>
			<circle class="st2" cx="139.9" cy="65" r="13.7"/>
			<circle class="st2" cx="94.7" cy="109.3" r="13.7"/>
			<circle class="st3" cx="37.3" cy="553.6" r="6.5"/>
			
				<ellipse transform="matrix(9.089787e-03 -1 1 9.089787e-03 -487.4915 573.2568)" class="st2" cx="45.5" cy="532.6" rx="13.7" ry="13.7"/>
			<circle class="st2" cx="33.8" cy="46.8" r="13.7"/>
			<circle class="st2" cx="36.3" cy="120.3" r="13.7"/>
			<circle class="st3" cx="86.6" cy="282" r="6.5"/>
			<circle class="st2" cx="143.1" cy="241.8" r="10.3"/>
			<circle class="st2" cx="139.9" cy="216.7" r="13.7"/>
			
				<ellipse transform="matrix(4.531446e-02 -0.999 0.999 4.531446e-02 -170.3232 343.7756)" class="st2" cx="94.7" cy="261" rx="13.7" ry="13.7"/>
			
				<ellipse transform="matrix(0.9999 -1.020248e-02 1.020248e-02 0.9999 -3.1219 0.4373)" class="st2" cx="41.3" cy="306.2" rx="10.3" ry="10.3"/>
			<circle class="st2" cx="139.9" cy="292.5" r="13.7"/>
			<circle class="st2" cx="58.3" cy="278.8" r="13.7"/>
			<circle class="st2" cx="39.4" cy="169.8" r="13.7"/>
			<circle class="st2" cx="39.4" cy="245.7" r="13.7"/>
			<circle class="st2" cx="238.2" cy="317.1" r="15.7"/>
			<circle class="st2" cx="286.5" cy="341.6" r="13.7"/>
			<circle class="st2" cx="238.2" cy="398.3" r="10.3"/>
			<circle class="st2" cx="241.4" cy="373.2" r="13.7"/>
			<circle class="st2" cx="286.5" cy="417.5" r="13.7"/>
			<circle class="st2" cx="238.2" cy="474.2" r="10.3"/>
			<circle class="st2" cx="241.4" cy="449" r="13.7"/>
			<circle class="st2" cx="286.5" cy="493.3" r="13.7"/>
			<circle class="st2" cx="238.2" cy="550" r="10.3"/>
			<circle class="st2" cx="214" cy="355.3" r="10.3"/>
			<circle class="st2" cx="241.4" cy="524.8" r="13.7"/>
			<circle class="st2" cx="274.8" cy="7.6" r="13.7"/>
			<circle class="st2" cx="224" cy="61.9" r="10.3"/>
			<circle class="st2" cx="227.2" cy="36.7" r="13.7"/>
			<circle class="st2" cx="272.3" cy="81" r="13.7"/>
			<circle class="st2" cx="224" cy="137.7" r="10.3"/>
			<circle class="st2" cx="227.2" cy="112.6" r="13.7"/>
			<circle class="st2" cx="272.3" cy="156.8" r="13.7"/>
			<circle class="st2" cx="224" cy="213.6" r="10.3"/>
			<circle class="st2" cx="272.3" cy="232.7" r="13.7"/>
			<circle class="st2" cx="224" cy="289.4" r="10.3"/>
			<circle class="st2" cx="199.8" cy="94.7" r="10.3"/>
			<circle class="st2" cx="227.2" cy="264.2" r="13.7"/>
			<circle class="st2" cx="272.3" cy="308.5" r="13.7"/>
			<circle class="st3" cx="179.9" cy="359.3" r="10.3"/>
			<circle class="st3" cx="131.7" cy="372.5" r="10.3"/>
			<circle class="st3" cx="126" cy="348.2" r="13.7"/>
			<circle class="st3" cx="95.8" cy="542.6" r="6.5"/>
			<circle class="st3" cx="95.8" cy="392.5" r="6.5"/>
			<circle class="st3" cx="74.3" cy="377.2" r="10.3"/>
			<circle class="st3" cx="68.5" cy="352.9" r="13.7"/>
			<circle class="st3" cx="70.9" cy="453.1" r="6.9"/>
			<circle class="st3" cx="80.6" cy="485.3" r="6.9"/>
			<circle class="st3" cx="120.3" cy="528.5" r="5.7"/>
			<circle class="st3" cx="220.8" cy="403.3" r="5.7"/>
			<circle class="st3" cx="38.3" cy="473.1" r="6.5"/>
			<circle class="st3" cx="38.3" cy="397.2" r="6.5"/>
			<circle class="st3" cx="68.5" cy="428.8" r="13.7"/>
			<circle class="st3" cx="68.5" cy="504.6" r="13.7"/>
			<circle class="st3" cx="166.9" cy="35.8" r="10.3"/>
			<circle class="st3" cx="120" cy="38.5" r="10.3"/>
			<circle class="st3" cx="114.3" cy="14.2" r="13.7"/>
			<circle class="st3" cx="116.7" cy="87.6" r="13.7"/>
			<circle class="st3" cx="73.3" cy="535.2" r="10.3"/>
			<circle class="st3" cx="61.6" cy="49.4" r="10.3"/>
			<circle class="st3" cx="55.8" cy="25.1" r="13.7"/>
			<circle class="st3" cx="64.1" cy="122.9" r="10.3"/>
			<circle class="st3" cx="58.3" cy="98.6" r="13.7"/>
			<circle class="st3" cx="86.6" cy="207.7" r="6.5"/>
			<circle class="st3" cx="86.6" cy="131.9" r="6.5"/>
			<circle class="st3" cx="63.8" cy="166" r="6.5"/>
			<circle class="st3" cx="34.8" cy="146.5" r="6.5"/>
			<circle class="st3" cx="172.8" cy="258.7" r="10.3"/>
			<circle class="st3" cx="122.5" cy="263.6" r="10.3"/>
			<circle class="st3" cx="116.7" cy="239.3" r="13.7"/>
			<circle class="st3" cx="116.7" cy="315.1" r="13.7"/>
			<circle class="st3" cx="31.2" cy="190.9" r="6.5"/>
			<circle class="st3" cx="58.3" cy="220.1" r="6.5"/>
			<circle class="st3" cx="77.4" cy="149.2" r="6.7"/>
			<circle class="st3" cx="67.2" cy="248.3" r="10.3"/>
			<circle class="st3" cx="58.3" cy="149.2" r="7.9"/>
			<circle class="st3" cx="210.5" cy="331" r="10.3"/>
			<circle class="st3" cx="258.7" cy="344.3" r="10.3"/>
			<circle class="st3" cx="258.7" cy="420.1" r="10.3"/>
			<circle class="st3" cx="294.7" cy="440.1" r="6.5"/>
			<circle class="st3" cx="294.7" cy="514.4" r="6.5"/>
			<circle class="st3" cx="294.7" cy="364.3" r="6.5"/>
			<circle class="st3" cx="264.5" cy="395.8" r="13.7"/>
			<circle class="st3" cx="258.7" cy="495.9" r="10.3"/>
			<circle class="st3" cx="264.5" cy="471.6" r="13.7"/>
			<circle class="st3" cx="196.5" cy="11" r="13.4"/>
			<circle class="st3" cx="247" cy="10.2" r="10.3"/>
			<circle class="st3" cx="264.5" cy="547.4" r="13.7"/>
			<circle class="st3" cx="196.4" cy="70.4" r="10.3"/>
			<circle class="st3" cx="244.6" cy="83.6" r="10.3"/>
			<circle class="st3" cx="250.3" cy="59.3" r="13.7"/>
			<circle class="st3" cx="244.6" cy="159.5" r="10.3"/>
			<circle class="st3" cx="280.5" cy="179.5" r="6.5"/>
			<circle class="st3" cx="280.5" cy="253.7" r="6.5"/>
			<circle class="st3" cx="280.5" cy="103.6" r="6.5"/>
			<circle class="st3" cx="250.3" cy="135.2" r="13.7"/>
			<circle class="st3" cx="194.3" cy="230.4" r="10.3"/>
			<circle class="st3" cx="244.6" cy="235.3" r="10.3"/>
			<circle class="st3" cx="250.3" cy="213" r="11.7"/>
			<circle class="st3" cx="197.7" cy="308.5" r="10.3"/>
			<circle class="st3" cx="171.2" cy="306.2" r="10.3"/>
			<circle class="st3" cx="250.3" cy="286.8" r="13.7"/>
			
				<ellipse transform="matrix(3.327791e-02 -0.9994 0.9994 3.327791e-02 -325.8156 480.3553)" class="st4" cx="85.4" cy="408.6" rx="10.3" ry="10.3"/>
			<circle class="st4" cx="157.3" cy="371.8" r="10.3"/>
			<circle class="st4" cx="178.6" cy="331.6" r="13.7"/>
			
				<ellipse transform="matrix(3.327795e-02 -0.9994 0.9994 3.327795e-02 -246.5001 423.7557)" class="st4" cx="95.8" cy="339.3" rx="13.7" ry="13.7"/>
			<circle class="st4" cx="63.8" cy="326.9" r="10.3"/>
			
				<ellipse transform="matrix(0.9999 -1.020249e-02 1.020249e-02 0.9999 -3.5077 0.4087)" class="st4" cx="38.3" cy="344" rx="13.7" ry="13.7"/>
			<circle class="st4" cx="63.8" cy="402.7" r="10.3"/>
			
				<ellipse transform="matrix(0.9999 -1.020249e-02 1.020249e-02 0.9999 -4.282 0.4126)" class="st4" cx="38.3" cy="419.9" rx="13.7" ry="13.7"/>
			<circle class="st4" cx="63.8" cy="478.6" r="10.3"/>
			
				<ellipse transform="matrix(0.9999 -1.020249e-02 1.020249e-02 0.9999 -5.0554 0.4166)" class="st4" cx="38.3" cy="495.7" rx="13.7" ry="13.7"/>
			<circle class="st4" cx="121.3" cy="549.7" r="10.3"/>
			<circle class="st4" cx="175.1" cy="542" r="10.3"/>
			<circle class="st4" cx="144.4" cy="38.5" r="10.3"/>
			<circle class="st4" cx="166.9" cy="6.4" r="13.7"/>
			<circle class="st4" cx="84.1" cy="5.2" r="13.7"/>
			<circle class="st4" cx="112" cy="61.6" r="10.3"/>
			<circle class="st4" cx="169.4" cy="71" r="13.7"/>
			<circle class="st4" cx="86.6" cy="78.7" r="13.7"/>
			<circle class="st4" cx="62.8" cy="560.7" r="10.3"/>
			<circle class="st4" cx="25.6" cy="16.2" r="13.7"/>
			<circle class="st4" cx="53.6" cy="72.6" r="10.3"/>
			<circle class="st4" cx="28.1" cy="89.7" r="13.7"/>
			<circle class="st4" cx="112" cy="213.3" r="10.3"/>
			<circle class="st4" cx="146.9" cy="263.6" r="10.3"/>
			<circle class="st4" cx="167.3" cy="231.6" r="13.7"/>
			<circle class="st4" cx="86.6" cy="230.4" r="13.7"/>
			<circle class="st4" cx="112" cy="289.1" r="10.3"/>
			<circle class="st4" cx="165.9" cy="281.4" r="10.3"/>
			
				<ellipse transform="matrix(9.089776e-03 -1 1 9.089776e-03 -248.1721 307.7617)" class="st4" cx="31.2" cy="279.1" rx="10.3" ry="10.3"/>
			
				<ellipse transform="matrix(3.327795e-02 -0.9994 0.9994 3.327795e-02 -222.3123 382.5623)" class="st4" cx="86.6" cy="306.2" rx="13.7" ry="13.7"/>
			<circle class="st4" cx="31.2" cy="215.1" r="13.7"/>
			<circle class="st4" cx="234.4" cy="344.3" r="10.3"/>
			<circle class="st4" cx="301.9" cy="308.5" r="13.7"/>
			<circle class="st2" cx="149.1" cy="596" r="13.7"/>
			
				<ellipse transform="matrix(0.9999 -1.020248e-02 1.020248e-02 0.9999 -5.8796 0.4514)" class="st2" cx="41.3" cy="576.5" rx="10.3" ry="10.3"/>
			<circle class="st2" cx="238.2" cy="587.4" r="15.7"/>
			<circle class="st2" cx="286.5" cy="612" r="13.7"/>
			<circle class="st2" cx="129.3" cy="628.1" r="10.3"/>
			<circle class="st2" cx="272.4" cy="578.8" r="13.7"/>
			<circle class="st3" cx="123.5" cy="576.5" r="13.7"/>
			<circle class="st3" cx="210.5" cy="601.4" r="10.3"/>
			<circle class="st3" cx="197.7" cy="578.8" r="10.3"/>
			<circle class="st3" cx="171.2" cy="576.5" r="10.3"/>
			<circle class="st3" cx="218.8" cy="570.9" r="10"/>
			<circle class="st4" cx="178.6" cy="601.9" r="13.7"/>
			
				<ellipse transform="matrix(3.327795e-02 -0.9994 0.9994 3.327795e-02 -516.7503 685.1573)" class="st4" cx="95.8" cy="609.7" rx="13.7" ry="13.7"/>
			<circle class="st4" cx="63.8" cy="597.2" r="10.3"/>
			
				<ellipse transform="matrix(0.9999 -1.020249e-02 1.020249e-02 0.9999 -6.2664 0.4227)" class="st4" cx="38.3" cy="614.4" rx="13.7" ry="13.7"/>
			<circle class="st4" cx="191.4" cy="557.5" r="7.6"/>
			
				<ellipse transform="matrix(3.327795e-02 -0.9994 0.9994 3.327795e-02 -476.8546 639.6036)" class="st4" cx="92.2" cy="566.3" rx="13.7" ry="13.7"/>
			<circle class="st4" cx="301.9" cy="578.8" r="13.7"/>
			<circle class="st4" cx="269.2" cy="369.8" r="10.3"/>
			<circle class="st4" cx="234.4" cy="420.1" r="10.3"/>
			<circle class="st4" cx="211.9" cy="382.1" r="13.7"/>
			<circle class="st4" cx="294.7" cy="386.9" r="13.7"/>
			<circle class="st4" cx="269.2" cy="445.6" r="10.3"/>
			<circle class="st4" cx="234.4" cy="495.9" r="10.3"/>
			<circle class="st4" cx="294.7" cy="462.7" r="13.7"/>
			<circle class="st4" cx="269.2" cy="521.4" r="10.3"/>
			<circle class="st4" cx="214" cy="513.2" r="8.6"/>
			<circle class="st4" cx="222.7" cy="10.2" r="10.3"/>
			<circle class="st4" cx="211.9" cy="539.7" r="13.7"/>
			<circle class="st4" cx="294.7" cy="538.5" r="13.7"/>
			<circle class="st4" cx="255" cy="33.3" r="10.3"/>
			<circle class="st4" cx="220.2" cy="83.6" r="10.3"/>
			<circle class="st4" cx="197.7" cy="42.7" r="13.7"/>
			
				<ellipse transform="matrix(0.1735 -0.9848 0.9848 0.1735 182.1968 317.9012)" class="st4" cx="280.5" cy="50.4" rx="13.7" ry="13.7"/>
			<circle class="st4" cx="255" cy="109.1" r="10.3"/>
			<circle class="st4" cx="200.2" cy="119.4" r="10.3"/>
			<circle class="st4" cx="197.7" cy="208.2" r="7.8"/>
			
				<ellipse transform="matrix(0.1602 -0.9871 0.9871 0.1602 110.8998 382.947)" class="st4" cx="280.5" cy="126.3" rx="13.7" ry="13.7"/>
			<circle class="st4" cx="257.3" cy="182.7" r="8"/>
			<circle class="st4" cx="220.2" cy="235.3" r="10.3"/>
			
				<ellipse transform="matrix(0.1602 -0.9871 0.9871 0.1602 36.0785 446.6052)" class="st4" cx="280.5" cy="202.1" rx="13.7" ry="13.7"/>
			<circle class="st4" cx="255" cy="260.8" r="10.3"/>
			<circle class="st4" cx="201.2" cy="253.1" r="10.3"/>
			<circle class="st4" cx="197.7" cy="279.1" r="13.7"/>
			<circle class="st4" cx="280.5" cy="277.9" r="13.7"/>
		</g>
	</g>
</g>
</svg>
