<?xml version="1.0" encoding="utf-8"?>
<!-- Generator: Adobe Illustrator 23.0.3, SVG Export Plug-In . SVG Version: 6.00 Build 0)  -->
<svg version="1.1" id="Capa_1" xmlns="http://www.w3.org/2000/svg" xmlns:xlink="http://www.w3.org/1999/xlink" x="0px" y="0px"
	 viewBox="0 0 333.1 595.3" style="enable-background:new 0 0 333.1 595.3;" xml:space="preserve">
<g>
	<defs>
		<polygon id="SVGID_1_" points="15.1,47.3 66.4,581.5 301.8,561.9 318,13.8 		"/>
	</defs>
	<clipPath id="SVGID_2_">
		<use xlink:href="#SVGID_1_"  style="overflow:visible;"/>
	</clipPath>
	<g class="st0">
		<rect x="8" y="-1" class="st1" width="331.4" height="595.3"/>
		<rect x="5.4" y="-2.1" class="st1" width="326.2" height="608.8"/>
		<g>
			<circle class="st2" cx="149.7" cy="328.6" r="10.2"/>
			<circle class="st2" cx="146.6" cy="303.8" r="13.5"/>
			<circle class="st2" cx="310.5" cy="208.7" r="13.5"/>
			<circle class="st2" cx="102" cy="347.5" r="13.5"/>
			<circle class="st2" cx="99.6" cy="499.8" r="11.2"/>
			<circle class="st2" cx="45.2" cy="352.2" r="13.5"/>
			<circle class="st2" cx="45.2" cy="427.1" r="13.5"/>
			<circle class="st2" cx="149.7" cy="553.5" r="10.2"/>
			<circle class="st2" cx="185.9" cy="354.8" r="5.4"/>
			<circle class="st2" cx="192.9" cy="328.6" r="5.4"/>
			<circle class="st2" cx="217.5" cy="288.4" r="5.4"/>
			<circle class="st2" cx="175.7" cy="288.4" r="5.4"/>
			<circle class="st2" cx="146.6" cy="528.6" r="13.5"/>
			<circle class="st2" cx="102" cy="572.4" r="13.5"/>
			<circle class="st2" cx="186.2" cy="80.3" r="6.9"/>
			<circle class="st2" cx="182.8" cy="191.6" r="6.9"/>
			<circle class="st2" cx="129.9" cy="94.9" r="6.9"/>
			<circle class="st2" cx="150.3" cy="50" r="13.5"/>
			<circle class="st2" cx="105.6" cy="93.8" r="13.5"/>
			<circle class="st3" cx="36.1" cy="529.1" r="6.4"/>
			<circle class="st2" cx="44.2" cy="508.3" r="13.5"/>
			<circle class="st2" cx="45.4" cy="32.1" r="13.5"/>
			<circle class="st2" cx="47.9" cy="104.7" r="13.5"/>
			<circle class="st3" cx="97.6" cy="264.5" r="6.4"/>
			<circle class="st2" cx="153.4" cy="224.8" r="10.2"/>
			<circle class="st2" cx="150.3" cy="199.9" r="13.5"/>
			<circle class="st2" cx="105.6" cy="243.7" r="13.5"/>
			<circle class="st2" cx="271" cy="13.1" r="10.2"/>
			<circle class="st2" cx="150.3" cy="274.9" r="13.5"/>
			<circle class="st2" cx="69.6" cy="261.4" r="13.5"/>
			<circle class="st2" cx="50.9" cy="153.6" r="13.5"/>
			<circle class="st2" cx="314.6" cy="89.5" r="13.5"/>
			<circle class="st2" cx="24.6" cy="133.2" r="13.5"/>
			<circle class="st2" cx="50.9" cy="228.6" r="13.5"/>
			<circle class="st2" cx="234.7" cy="300.7" r="10.2"/>
			<circle class="st2" cx="282.4" cy="319.6" r="13.5"/>
			<circle class="st2" cx="234.7" cy="375.6" r="10.2"/>
			<circle class="st2" cx="237.8" cy="350.8" r="13.5"/>
			<circle class="st2" cx="282.4" cy="394.5" r="13.5"/>
			<circle class="st2" cx="234.7" cy="450.6" r="10.2"/>
			<circle class="st2" cx="237.8" cy="425.7" r="13.5"/>
			<circle class="st2" cx="282.4" cy="469.5" r="13.5"/>
			<circle class="st2" cx="234.7" cy="525.5" r="10.2"/>
			<circle class="st2" cx="210.7" cy="333.1" r="10.2"/>
			<circle class="st2" cx="197.2" cy="288.4" r="10.2"/>
			<circle class="st2" cx="237.8" cy="500.7" r="13.5"/>
			<circle class="st2" cx="282.4" cy="544.4" r="13.5"/>
			<circle class="st2" cx="233.4" cy="47" r="10.2"/>
			<circle class="st2" cx="235.3" cy="573.3" r="13.5"/>
			<circle class="st2" cx="281.2" cy="65.9" r="13.5"/>
			<circle class="st2" cx="233.4" cy="121.9" r="10.2"/>
			<circle class="st2" cx="236.5" cy="97" r="13.5"/>
			<circle class="st2" cx="281.2" cy="140.8" r="13.5"/>
			<circle class="st2" cx="233.4" cy="196.9" r="10.2"/>
			<circle class="st2" cx="300.3" cy="8.6" r="10.2"/>
			<circle class="st2" cx="281.2" cy="215.8" r="13.5"/>
			<circle class="st2" cx="233.4" cy="271.8" r="10.2"/>
			<circle class="st2" cx="209.5" cy="79.4" r="10.2"/>
			<circle class="st2" cx="236.5" cy="246.9" r="13.5"/>
			<circle class="st2" cx="239.8" cy="13.8" r="13.5"/>
			<circle class="st3" cx="177.1" cy="337.1" r="10.2"/>
			<circle class="st3" cx="129.4" cy="350.1" r="10.2"/>
			<circle class="st3" cx="123.7" cy="326.1" r="13.5"/>
			<circle class="st3" cx="93.9" cy="518.2" r="6.4"/>
			<circle class="st3" cx="93.9" cy="369.9" r="6.4"/>
			<circle class="st3" cx="72.7" cy="354.8" r="10.2"/>
			<circle class="st3" cx="67" cy="330.8" r="13.5"/>
			<circle class="st3" cx="69.3" cy="429.7" r="6.8"/>
			<circle class="st3" cx="78.9" cy="461.6" r="6.8"/>
			<circle class="st3" cx="118.1" cy="504.3" r="5.6"/>
			<circle class="st3" cx="217.5" cy="380.6" r="5.6"/>
			<circle class="st3" cx="37.1" cy="449.5" r="6.4"/>
			<circle class="st3" cx="37.1" cy="374.5" r="6.4"/>
			<circle class="st3" cx="67" cy="405.7" r="13.5"/>
			<circle class="st3" cx="67" cy="480.7" r="13.5"/>
			<circle class="st3" cx="175.7" cy="572.4" r="10.2"/>
			<circle class="st3" cx="129.4" cy="575" r="10.2"/>
			<circle class="st3" cx="123.7" cy="551" r="13.5"/>
			<circle class="st3" cx="127.4" cy="72.4" r="13.5"/>
			<circle class="st3" cx="71.7" cy="510.9" r="10.2"/>
			<circle class="st3" cx="72.9" cy="34.7" r="10.2"/>
			<circle class="st3" cx="66" cy="561.8" r="13.5"/>
			<circle class="st3" cx="75.3" cy="107.3" r="10.2"/>
			<circle class="st3" cx="69.6" cy="83.2" r="13.5"/>
			<circle class="st3" cx="97.6" cy="191.1" r="6.4"/>
			<circle class="st3" cx="97.6" cy="116.2" r="6.4"/>
			<circle class="st3" cx="75.1" cy="149.8" r="6.4"/>
			<circle class="st3" cx="46.4" cy="130.5" r="6.4"/>
			<circle class="st3" cx="182.8" cy="241.5" r="10.2"/>
			<circle class="st3" cx="133.1" cy="246.3" r="10.2"/>
			<circle class="st3" cx="127.4" cy="222.3" r="13.5"/>
			<circle class="st3" cx="308.3" cy="58" r="10.2"/>
			<circle class="st3" cx="29" cy="247.8" r="10.2"/>
			<circle class="st3" cx="91.1" cy="284.6" r="13.5"/>
			<circle class="st3" cx="42.9" cy="174.5" r="6.4"/>
			<circle class="st3" cx="69.6" cy="203.3" r="6.4"/>
			<circle class="st3" cx="88.6" cy="133.2" r="6.7"/>
			<circle class="st3" cx="78.4" cy="231.2" r="10.2"/>
			<circle class="st3" cx="69.6" cy="133.2" r="7.8"/>
			<circle class="st3" cx="207.3" cy="309.1" r="10.2"/>
			<circle class="st3" cx="255" cy="322.2" r="10.2"/>
			<circle class="st3" cx="260.7" cy="298.2" r="13.5"/>
			<circle class="st3" cx="310.5" cy="472.1" r="13.5"/>
			<circle class="st3" cx="314.6" cy="302.1" r="13.5"/>
			<circle class="st3" cx="255" cy="397.1" r="10.2"/>
			<circle class="st3" cx="290.5" cy="416.9" r="6.4"/>
			<circle class="st3" cx="290.5" cy="490.3" r="6.4"/>
			<circle class="st3" cx="18.2" cy="341.9" r="6.4"/>
			<circle class="st3" cx="290.5" cy="341.9" r="6.4"/>
			<circle class="st3" cx="260.7" cy="373.1" r="13.5"/>
			<circle class="st3" cx="255" cy="472.1" r="10.2"/>
			<circle class="st3" cx="301.1" cy="562.2" r="10.2"/>
			<circle class="st3" cx="260.7" cy="448.1" r="13.5"/>
			<circle class="st3" cx="205" cy="547.9" r="13.3"/>
			<circle class="st3" cx="18.2" cy="369.9" r="13.3"/>
			<circle class="st3" cx="255" cy="547" r="10.2"/>
			<circle class="st3" cx="260.7" cy="523" r="13.5"/>
			<circle class="st3" cx="310.5" cy="332.3" r="13.5"/>
			<circle class="st3" cx="310.5" cy="397.1" r="13.5"/>
			<circle class="st3" cx="206.1" cy="55.4" r="10.2"/>
			<circle class="st3" cx="253.7" cy="68.5" r="10.2"/>
			<circle class="st3" cx="259.4" cy="44.4" r="13.5"/>
			<circle class="st3" cx="253.7" cy="143.4" r="10.2"/>
			<circle class="st3" cx="289.3" cy="163.2" r="6.4"/>
			<circle class="st3" cx="289.3" cy="236.6" r="6.4"/>
			<circle class="st3" cx="310.5" cy="119.4" r="6.4"/>
			<circle class="st3" cx="289.3" cy="88.2" r="6.4"/>
			<circle class="st3" cx="259.4" cy="119.4" r="13.5"/>
			<circle class="st3" cx="204" cy="213.5" r="10.2"/>
			<circle class="st3" cx="253.7" cy="218.3" r="10.2"/>
			<circle class="st3" cx="259.4" cy="196.3" r="11.6"/>
			<circle class="st3" cx="153.4" cy="3" r="10.2"/>
			<circle class="st3" cx="189.7" cy="3" r="10.2"/>
			<circle class="st3" cx="80.3" cy="3" r="10.2"/>
			<circle class="st3" cx="49.3" cy="3" r="10.2"/>
			<circle class="st3" cx="308.3" cy="141.1" r="10.2"/>
			<circle class="st3" cx="259.4" cy="269.3" r="13.5"/>
			<circle class="st4" cx="119.1" cy="300.4" r="10.2"/>
			<circle class="st4" cx="83.7" cy="385.8" r="10.2"/>
			<circle class="st4" cx="154.7" cy="349.4" r="10.2"/>
			<circle class="st4" cx="175.7" cy="309.7" r="13.5"/>
			<circle class="st4" cx="93.9" cy="317.3" r="13.5"/>
			<circle class="st4" cx="62.3" cy="305" r="10.2"/>
			<circle class="st4" cx="37.1" cy="322" r="13.5"/>
			<circle class="st4" cx="62.3" cy="380" r="10.2"/>
			<circle class="st4" cx="37.1" cy="396.9" r="13.5"/>
			<circle class="st4" cx="62.3" cy="454.9" r="10.2"/>
			<circle class="st4" cx="37.1" cy="471.8" r="13.5"/>
			<circle class="st4" cx="119.1" cy="525.2" r="10.2"/>
			<circle class="st4" cx="172.3" cy="517.7" r="10.2"/>
			<circle class="st4" cx="153.5" cy="575" r="10.2"/>
			<circle class="st4" cx="175.7" cy="543.3" r="13.5"/>
			<circle class="st4" cx="93.9" cy="542.1" r="13.5"/>
			<circle class="st4" cx="122.7" cy="46.7" r="10.2"/>
			<circle class="st4" cx="179.4" cy="55.9" r="13.5"/>
			<circle class="st4" cx="97.6" cy="63.6" r="13.5"/>
			<circle class="st4" cx="61.3" cy="536.1" r="10.2"/>
			<circle class="st4" cx="36.1" cy="553" r="13.5"/>
			<circle class="st4" cx="65" cy="57.5" r="10.2"/>
			<circle class="st4" cx="39.8" cy="74.4" r="13.5"/>
			<circle class="st4" cx="122.7" cy="196.6" r="10.2"/>
			<circle class="st4" cx="157.2" cy="246.3" r="10.2"/>
			<circle class="st4" cx="177.4" cy="214.7" r="13.5"/>
			<circle class="st4" cx="97.6" cy="213.5" r="13.5"/>
			<circle class="st4" cx="122.7" cy="271.5" r="10.2"/>
			<circle class="st4" cx="310.5" cy="235.8" r="10.2"/>
			<circle class="st4" cx="176" cy="263.9" r="10.2"/>
			<circle class="st4" cx="136.7" cy="26.7" r="10.2"/>
			<circle class="st4" cx="104" cy="22.1" r="13.5"/>
			<circle class="st4" cx="119.4" cy="-5" r="13.5"/>
			<circle class="st4" cx="42.6" cy="275.8" r="13.5"/>
			<circle class="st4" cx="42.9" cy="198.4" r="13.5"/>
			<circle class="st4" cx="230.9" cy="322.2" r="10.2"/>
			<circle class="st4" cx="202.3" cy="585.1" r="13.5"/>
			<circle class="st4" cx="290.5" cy="289.4" r="13.5"/>
			<circle class="st4" cx="265.3" cy="347.4" r="10.2"/>
			<circle class="st4" cx="230.9" cy="397.1" r="10.2"/>
			<circle class="st4" cx="208.7" cy="359.6" r="13.5"/>
			<circle class="st4" cx="318" cy="269.3" r="13.5"/>
			<circle class="st4" cx="290.5" cy="364.3" r="13.5"/>
			<circle class="st4" cx="265.3" cy="422.3" r="10.2"/>
			<circle class="st4" cx="230.9" cy="472.1" r="10.2"/>
			<circle class="st4" cx="290.5" cy="439.2" r="13.5"/>
			<circle class="st4" cx="265.3" cy="497.3" r="10.2"/>
			<circle class="st4" cx="210.7" cy="489.2" r="8.5"/>
			<circle class="st4" cx="230.9" cy="547" r="10.2"/>
			<circle class="st4" cx="208.7" cy="515.4" r="13.5"/>
			<circle class="st4" cx="290.5" cy="514.2" r="13.5"/>
			<circle class="st4" cx="262.9" cy="569.9" r="10.2"/>
			<circle class="st4" cx="229.6" cy="68.5" r="10.2"/>
			<circle class="st4" cx="207.4" cy="28" r="13.5"/>
			<circle class="st4" cx="289.3" cy="35.6" r="13.5"/>
			<circle class="st4" cx="264.1" cy="93.7" r="10.2"/>
			<circle class="st4" cx="209.9" cy="103.8" r="10.2"/>
			<circle class="st4" cx="207.4" cy="191.6" r="7.7"/>
			<circle class="st4" cx="289.3" cy="110.6" r="13.5"/>
			<circle class="st4" cx="266.3" cy="166.4" r="8"/>
			<circle class="st4" cx="229.6" cy="218.3" r="10.2"/>
			<circle class="st4" cx="289.3" cy="185.5" r="13.5"/>
			<circle class="st4" cx="264.1" cy="243.5" r="10.2"/>
			<circle class="st4" cx="210.8" cy="236" r="10.2"/>
			<circle class="st4" cx="314.6" cy="28" r="10.2"/>
			<circle class="st4" cx="173.9" cy="24.5" r="10.2"/>
			<circle class="st4" cx="207.4" cy="261.7" r="13.5"/>
			<circle class="st4" cx="314.6" cy="169.6" r="13.5"/>
			<circle class="st4" cx="289.3" cy="260.5" r="13.5"/>
		</g>
	</g>
</g>
</svg>
