<?xml version="1.0" encoding="utf-8"?>
<!-- Generator: Adobe Illustrator 23.0.3, SVG Export Plug-In . SVG Version: 6.00 Build 0)  -->
<svg version="1.1" id="Capa_1" xmlns="http://www.w3.org/2000/svg" xmlns:xlink="http://www.w3.org/1999/xlink" x="0px" y="0px"
	 viewBox="0 0 333.1 595.3" style="enable-background:new 0 0 333.1 595.3;" xml:space="preserve">
<g>
	<defs>
		<polygon id="SVGID_1_" points="12.6,42.6 64.8,586.8 304.6,566.9 321.1,8.5 		"/>
	</defs>
	<clipPath id="SVGID_2_">
		<use xlink:href="#SVGID_1_"  style="overflow:visible;"/>
	</clipPath>
	<g class="st0">
		<rect x="19.1" y="-41.7" class="st1" width="311.6" height="664.5"/>
		<g>
			<g>
				<circle class="st2" cx="153.1" cy="58.5" r="10.3"/>
				<circle class="st2" cx="150" cy="33.2" r="13.8"/>
				<circle class="st2" cx="104.5" cy="77.8" r="13.8"/>
				<circle class="st2" cx="102.1" cy="232.9" r="11.4"/>
				<circle class="st2" cx="46.6" cy="82.5" r="13.8"/>
				<circle class="st2" cx="46.6" cy="158.9" r="13.8"/>
				<circle class="st2" cx="153.1" cy="287.6" r="10.3"/>
				<circle class="st2" cx="190" cy="85.1" r="5.5"/>
				<circle class="st2" cx="150" cy="262.2" r="13.8"/>
				<circle class="st2" cx="104.5" cy="306.8" r="13.8"/>
				<circle class="st2" cx="189" cy="367" r="7"/>
				<circle class="st2" cx="185.6" cy="480.4" r="7"/>
				<circle class="st2" cx="131.7" cy="381.9" r="7"/>
				<circle class="st2" cx="152.5" cy="336.2" r="13.8"/>
				<circle class="st2" cx="107" cy="380.8" r="13.8"/>
				<circle class="st3" cx="37.4" cy="262.7" r="6.6"/>
				<circle class="st2" cx="45.6" cy="241.5" r="13.8"/>
				<circle class="st2" cx="45.6" cy="317.9" r="13.8"/>
				<circle class="st2" cx="48.1" cy="391.9" r="13.8"/>
				<circle class="st3" cx="98.8" cy="554.7" r="6.6"/>
				<circle class="st2" cx="155.6" cy="514.2" r="10.3"/>
				<circle class="st2" cx="152.5" cy="488.9" r="13.8"/>
				<circle class="st2" cx="107" cy="533.5" r="13.8"/>
				<circle class="st2" cx="53.2" cy="579" r="10.3"/>
				<circle class="st2" cx="152.5" cy="565.3" r="13.8"/>
				<circle class="st2" cx="70.3" cy="551.5" r="13.8"/>
				<circle class="st2" cx="51.3" cy="441.7" r="13.8"/>
				<circle class="st2" cx="51.3" cy="518.1" r="13.8"/>
				<circle class="st2" cx="239.7" cy="30" r="10.3"/>
				<circle class="st2" cx="288.3" cy="49.3" r="13.8"/>
				<circle class="st2" cx="239.7" cy="106.4" r="10.3"/>
				<circle class="st2" cx="242.8" cy="81.1" r="13.8"/>
				<circle class="st2" cx="288.3" cy="125.6" r="13.8"/>
				<circle class="st2" cx="239.7" cy="182.7" r="10.3"/>
				<circle class="st2" cx="242.8" cy="157.4" r="13.8"/>
				<circle class="st2" cx="288.3" cy="202" r="13.8"/>
				<circle class="st2" cx="239.7" cy="259.1" r="10.3"/>
				<circle class="st2" cx="215.3" cy="63.1" r="10.3"/>
				<circle class="st2" cx="242.8" cy="233.8" r="13.8"/>
				<circle class="st2" cx="288.3" cy="278.3" r="13.8"/>
				<circle class="st2" cx="237.2" cy="333.1" r="10.3"/>
				<circle class="st2" cx="240.3" cy="307.7" r="13.8"/>
				<circle class="st2" cx="285.8" cy="352.3" r="13.8"/>
				<circle class="st2" cx="237.2" cy="409.4" r="10.3"/>
				<circle class="st2" cx="240.3" cy="384.1" r="13.8"/>
				<circle class="st2" cx="285.8" cy="428.7" r="13.8"/>
				<circle class="st2" cx="237.2" cy="485.8" r="10.3"/>
				<circle class="st2" cx="285.8" cy="505" r="13.8"/>
				<circle class="st2" cx="237.2" cy="562.1" r="10.3"/>
				<circle class="st2" cx="212.8" cy="366.1" r="10.3"/>
				<circle class="st2" cx="240.3" cy="536.8" r="13.8"/>
				<circle class="st2" cx="285.8" cy="581.4" r="13.8"/>
			</g>
			<g>
				<circle class="st3" cx="181" cy="67.1" r="10.3"/>
				<circle class="st3" cx="132.5" cy="80.4" r="10.3"/>
				<circle class="st3" cx="126.6" cy="55.9" r="13.8"/>
				<circle class="st3" cx="96.3" cy="251.7" r="6.6"/>
				<circle class="st3" cx="96.3" cy="100.5" r="6.6"/>
				<circle class="st3" cx="74.6" cy="85.1" r="10.3"/>
				<circle class="st3" cx="68.8" cy="60.7" r="13.8"/>
				<circle class="st3" cx="71.2" cy="161.5" r="6.9"/>
				<circle class="st3" cx="80.9" cy="194" r="6.9"/>
				<circle class="st3" cx="120.9" cy="237.4" r="5.7"/>
				<circle class="st3" cx="222.2" cy="111.4" r="5.7"/>
				<circle class="st3" cx="38.4" cy="181.6" r="6.6"/>
				<circle class="st3" cx="38.4" cy="105.3" r="6.6"/>
				<circle class="st3" cx="68.8" cy="137" r="13.8"/>
				<circle class="st3" cx="68.8" cy="213.4" r="13.8"/>
				<circle class="st3" cx="179.6" cy="306.8" r="10.3"/>
				<circle class="st3" cx="132.5" cy="309.5" r="10.3"/>
				<circle class="st3" cx="126.6" cy="285" r="13.8"/>
				<circle class="st3" cx="129.2" cy="359" r="13.8"/>
				<circle class="st3" cx="73.6" cy="244.2" r="10.3"/>
				<circle class="st3" cx="73.6" cy="320.5" r="10.3"/>
				<circle class="st3" cx="67.8" cy="296.1" r="13.8"/>
				<circle class="st3" cx="76.1" cy="394.5" r="10.3"/>
				<circle class="st3" cx="70.3" cy="370" r="13.8"/>
				<circle class="st3" cx="98.8" cy="479.9" r="6.6"/>
				<circle class="st3" cx="98.8" cy="403.6" r="6.6"/>
				<circle class="st3" cx="75.9" cy="437.9" r="6.6"/>
				<circle class="st3" cx="46.7" cy="418.2" r="6.6"/>
				<circle class="st3" cx="185.6" cy="531.2" r="10.3"/>
				<circle class="st3" cx="135" cy="536.1" r="10.3"/>
				<circle class="st3" cx="129.2" cy="511.7" r="13.8"/>
				<circle class="st3" cx="313.5" cy="344.3" r="10.3"/>
				<circle class="st3" cx="67.8" cy="586.8" r="10.3"/>
				<circle class="st3" cx="129.2" cy="588" r="13.8"/>
				<circle class="st3" cx="43" cy="462.9" r="6.6"/>
				<circle class="st3" cx="70.3" cy="492.4" r="6.6"/>
				<circle class="st3" cx="89.6" cy="421" r="6.8"/>
				<circle class="st3" cx="79.2" cy="520.7" r="10.3"/>
				<circle class="st3" cx="70.3" cy="421" r="8"/>
				<circle class="st3" cx="211.8" cy="38.6" r="10.3"/>
				<circle class="st3" cx="260.3" cy="51.9" r="10.3"/>
				<circle class="st3" cx="266.2" cy="27.5" r="13.8"/>
				<circle class="st3" cx="316.9" cy="204.6" r="13.8"/>
				<circle class="st3" cx="321.1" cy="31.4" r="13.8"/>
				<circle class="st3" cx="260.3" cy="128.3" r="10.3"/>
				<circle class="st3" cx="296.6" cy="148.4" r="6.6"/>
				<circle class="st3" cx="296.6" cy="223.2" r="6.6"/>
				<circle class="st3" cx="19.1" cy="72.1" r="6.6"/>
				<circle class="st3" cx="296.6" cy="72.1" r="6.6"/>
				<circle class="st3" cx="266.2" cy="103.8" r="13.8"/>
				<circle class="st3" cx="260.3" cy="204.6" r="10.3"/>
				<circle class="st3" cx="307.3" cy="296.5" r="10.3"/>
				<circle class="st3" cx="266.2" cy="180.2" r="13.8"/>
				<circle class="st3" cx="209.5" cy="281.8" r="13.5"/>
				<circle class="st3" cx="19.1" cy="100.5" r="13.5"/>
				<circle class="st3" cx="260.3" cy="281" r="10.3"/>
				<circle class="st3" cx="266.2" cy="256.5" r="13.8"/>
				<circle class="st3" cx="316.9" cy="62.3" r="13.8"/>
				<circle class="st3" cx="316.9" cy="128.3" r="13.8"/>
				<circle class="st3" cx="209.3" cy="341.6" r="10.3"/>
				<circle class="st3" cx="257.8" cy="355" r="10.3"/>
				<circle class="st3" cx="263.7" cy="330.5" r="13.8"/>
				<circle class="st3" cx="257.8" cy="431.3" r="10.3"/>
				<circle class="st3" cx="294.1" cy="451.4" r="6.6"/>
				<circle class="st3" cx="294.1" cy="526.2" r="6.6"/>
				<circle class="st3" cx="294.1" cy="375.1" r="6.6"/>
				<circle class="st3" cx="263.7" cy="406.8" r="13.8"/>
				<circle class="st3" cx="207.2" cy="502.8" r="10.3"/>
				<circle class="st3" cx="257.8" cy="507.7" r="10.3"/>
				<circle class="st3" cx="263.7" cy="485.2" r="11.8"/>
				<circle class="st3" cx="210.7" cy="581.4" r="10.3"/>
				<circle class="st3" cx="313.5" cy="428.9" r="10.3"/>
				<circle class="st3" cx="263.7" cy="559.5" r="13.8"/>
			</g>
			<g>
				<circle class="st4" cx="121.9" cy="29.7" r="10.3"/>
				<circle class="st4" cx="85.8" cy="116.7" r="10.3"/>
				<circle class="st4" cx="158.2" cy="79.6" r="10.3"/>
				<circle class="st4" cx="179.6" cy="39.2" r="13.8"/>
				<circle class="st4" cx="96.3" cy="47" r="13.8"/>
				<circle class="st4" cx="64.1" cy="34.5" r="10.3"/>
				<circle class="st4" cx="38.4" cy="51.7" r="13.8"/>
				<circle class="st4" cx="64.1" cy="110.8" r="10.3"/>
				<circle class="st4" cx="38.4" cy="128.1" r="13.8"/>
				<circle class="st4" cx="64.1" cy="187.2" r="10.3"/>
				<circle class="st4" cx="38.4" cy="204.4" r="13.8"/>
				<circle class="st4" cx="121.9" cy="258.8" r="10.3"/>
				<circle class="st4" cx="176.2" cy="251.1" r="10.3"/>
				<circle class="st4" cx="157" cy="309.5" r="10.3"/>
				<circle class="st4" cx="179.6" cy="277.2" r="13.8"/>
				<circle class="st4" cx="96.3" cy="276" r="13.8"/>
				<circle class="st4" cx="124.4" cy="332.8" r="10.3"/>
				<circle class="st4" cx="182.1" cy="342.2" r="13.8"/>
				<circle class="st4" cx="98.8" cy="350" r="13.8"/>
				<circle class="st4" cx="63" cy="269.9" r="10.3"/>
				<circle class="st4" cx="37.4" cy="287.1" r="13.8"/>
				<circle class="st4" cx="65.5" cy="343.8" r="10.3"/>
				<circle class="st4" cx="39.9" cy="361.1" r="13.8"/>
				<circle class="st4" cx="124.4" cy="485.5" r="10.3"/>
				<circle class="st4" cx="159.5" cy="536.1" r="10.3"/>
				<circle class="st4" cx="180.1" cy="503.9" r="13.8"/>
				<circle class="st4" cx="98.8" cy="502.7" r="13.8"/>
				<circle class="st4" cx="124.4" cy="561.8" r="10.3"/>
				<circle class="st4" cx="178.7" cy="554.1" r="10.3"/>
				<circle class="st4" cx="159.5" cy="612.5" r="10.3"/>
				<circle class="st4" cx="182.1" cy="580.3" r="13.8"/>
				<circle class="st4" cx="98.8" cy="579" r="13.8"/>
				<circle class="st4" cx="43" cy="487.3" r="13.8"/>
				<circle class="st4" cx="235.8" cy="51.9" r="10.3"/>
				<circle class="st4" cx="213.2" cy="10.7" r="13.8"/>
				<circle class="st4" cx="296.6" cy="18.5" r="13.8"/>
				<circle class="st4" cx="270.9" cy="77.6" r="10.3"/>
				<circle class="st4" cx="235.8" cy="128.3" r="10.3"/>
				<circle class="st4" cx="213.2" cy="90" r="13.8"/>
				<circle class="st4" cx="296.6" cy="94.8" r="13.8"/>
				<circle class="st4" cx="270.9" cy="154" r="10.3"/>
				<circle class="st4" cx="235.8" cy="204.6" r="10.3"/>
				<circle class="st4" cx="296.6" cy="171.2" r="13.8"/>
				<circle class="st4" cx="270.9" cy="230.3" r="10.3"/>
				<circle class="st4" cx="215.3" cy="222.1" r="8.6"/>
				<circle class="st4" cx="235.8" cy="281" r="10.3"/>
				<circle class="st4" cx="213.2" cy="248.8" r="13.8"/>
				<circle class="st4" cx="296.6" cy="247.5" r="13.8"/>
				<circle class="st4" cx="268.4" cy="304.3" r="10.3"/>
				<circle class="st4" cx="233.3" cy="355" r="10.3"/>
				<circle class="st4" cx="210.7" cy="313.7" r="13.8"/>
				<circle class="st4" cx="294.1" cy="321.5" r="13.8"/>
				<circle class="st4" cx="268.4" cy="380.6" r="10.3"/>
				<circle class="st4" cx="213.2" cy="391" r="10.3"/>
				<circle class="st4" cx="210.7" cy="480.4" r="7.9"/>
				<circle class="st4" cx="294.1" cy="397.9" r="13.8"/>
				<circle class="st4" cx="270.6" cy="454.7" r="8.1"/>
				<circle class="st4" cx="233.3" cy="507.7" r="10.3"/>
				<circle class="st4" cx="294.1" cy="474.2" r="13.8"/>
				<circle class="st4" cx="268.4" cy="533.3" r="10.3"/>
				<circle class="st4" cx="214.1" cy="525.6" r="10.3"/>
				<circle class="st4" cx="233.3" cy="584" r="10.3"/>
				<circle class="st4" cx="210.7" cy="551.8" r="13.8"/>
				<circle class="st4" cx="294.1" cy="550.6" r="13.8"/>
			</g>
		</g>
	</g>
</g>
</svg>
