<?xml version="1.0" encoding="utf-8"?>
<!-- Generator: Adobe Illustrator 23.0.3, SVG Export Plug-In . SVG Version: 6.00 Build 0)  -->
<svg version="1.1" id="Capa_1" xmlns="http://www.w3.org/2000/svg" xmlns:xlink="http://www.w3.org/1999/xlink" x="0px" y="0px"
	 viewBox="0 0 354.31 446.22" style="enable-background:new 0 0 354.31 446.22;" xml:space="preserve">
<style type="text/css">
	.st0{fill:#9A999E;}
	.st1{fill:#E6B54A;}
	.st2{fill:#477871;}
	.st3{fill:#5FA199;}
	.st4{opacity:0.33;fill:#E6E6E6;}
</style>
<g>
	<circle class="st0" cx="178.74" cy="268.05" r="151.58"/>
	<path class="st1" d="M178.74,96.47c-94.61,0-171.58,76.97-171.58,171.58c0,94.61,76.97,171.58,171.58,171.58
		c94.61,0,171.58-76.97,171.58-171.58C350.32,173.44,273.35,96.47,178.74,96.47z M178.74,419.63c-83.58,0-151.58-68-151.58-151.58
		s68-151.58,151.58-151.58s151.58,68,151.58,151.58S262.32,419.63,178.74,419.63z"/>
	<g>
		<path class="st1" d="M222.79,42.47c0-19.65-19.76-35.63-44.05-35.63c-24.29,0-44.05,15.98-44.05,35.63
			c0,9.62,4.74,18.35,12.42,24.76c0.76-1.9,1.8-3.66,3.05-5.23c-5.89-5.22-9.47-12.05-9.47-19.53c0-16.34,17.07-29.63,38.05-29.63
			s38.05,13.29,38.05,29.63c0,7.48-3.58,14.31-9.47,19.53c1.25,1.58,2.29,3.33,3.05,5.23C218.05,60.82,222.79,52.09,222.79,42.47z"
			/>
		<path class="st2" d="M210.37,67.24c-0.76-1.9-1.8-3.66-3.05-5.23c-3.85-4.84-9.78-7.95-16.45-7.95h-24.26
			c-6.67,0-12.6,3.11-16.45,7.95c-1.25,1.58-2.29,3.33-3.05,5.23c-0.98,2.42-1.53,5.07-1.53,7.84v1.11
			c0,11.61,9.41,21.03,21.03,21.03h24.26c11.61,0,21.03-9.41,21.03-21.03v-1.11C211.9,72.3,211.34,69.66,210.37,67.24z"/>
	</g>
	<path class="st3" d="M65.89,139.15l-17.16,17.16c-8.21,8.21-21.52,8.21-29.74,0l-0.78-0.78c-8.21-8.21-8.21-21.52,0-29.74
		l17.16-17.16c8.21-8.21,21.52-8.21,29.74,0l0.78,0.78C74.1,117.63,74.1,130.94,65.89,139.15z"/>
</g>
<g>
	<path class="st4" d="M55.69,241.25h-14.4c-1.34,7.08-2.16,14.35-2.43,21.76h14.4C53.53,255.6,54.35,248.33,55.69,241.25z"/>
	<path class="st4" d="M53.23,272.58H38.83c0.21,7.11,0.93,14.08,2.13,20.89h14.41C54.17,286.67,53.44,279.69,53.23,272.58z"/>
	<path class="st4" d="M57.18,302.18h-14.4c14.6,60.44,67.25,105.33,129.8,105.33c2.42,0,4.82-0.07,7.2-0.2
		C120.43,404.01,71.21,360.29,57.18,302.18z"/>
	<path class="st4" d="M179.78,129.19c-2.39-0.13-4.79-0.2-7.2-0.2c-60.11,0-111.09,41.46-127.93,98.34h14.41
		C75.22,172.73,122.83,132.35,179.78,129.19z"/>
</g>
</svg>
