<?xml version="1.0" encoding="utf-8"?>
<!-- Generator: Adobe Illustrator 23.0.3, SVG Export Plug-In . SVG Version: 6.00 Build 0)  -->
<svg version="1.1" id="Capa_1" xmlns="http://www.w3.org/2000/svg" xmlns:xlink="http://www.w3.org/1999/xlink" x="0px" y="0px"
	 viewBox="0 0 225.7 242.1" style="enable-background:new 0 0 225.7 242.1;" xml:space="preserve">
<style type="text/css">
	.st0{fill:#E6B54A;}
	.st1{fill:#FFFFFF;}
</style>
<path class="st0" d="M194.4,42.3C141.8-14.6,47.4-0.8,12.2,68.2C5.9,80.5,2.5,93.7,0,107.1c0,8.3,0,16.7,0,25
	c0.4,1.6,0.8,3.2,1.1,4.9c7.1,38.6,27.9,66.9,63.2,84.5c11.3,5.6,23.5,8.3,35.7,10.7c8.3,0,16.7,0,25,0c1.6-0.4,3.2-0.7,4.9-1.1
	c44-8.4,74.8-33.1,89.2-75.5C233.3,113.6,224.4,74.9,194.4,42.3z"/>
<path class="st1" d="M60.6,125.2c6.9-10.6,13.8-21.2,20.6-31.9c3.5-5.5,2.3-7.7-4.3-8.1c-2.7-0.2-6.6,1.5-7.7-1.3
	c-0.9-2.4,2.5-4.7,4.5-6.7c11.2-11.7,24.9-17.4,45.3-17.4c13.8,0.2,28.3,7.5,39.3,21.7c2.9,3.7,6.1,6,11,5.3c7.5-1,11-7.7,6.7-13.9
	c-13.4-19.2-31.7-31-55.2-32.8C87.9,37.8,63.7,52,47.9,80.5c-2.2,3.9-4.9,4.7-8.9,4.8c-3.3,0-7.7-1.6-9.7,2
	c-2.1,3.7,1.7,6.4,3.5,9.2c5.9,9.6,12,19.2,18.2,28.7C54.8,131.1,56.7,131.1,60.6,125.2z"/>
<path class="st1" d="M165.7,113.2c-7.2,11-14.3,22.1-21.4,33.2c-3.2,5-1.9,7.2,4,7.6c2.6,0.2,6.4-1.3,7.4,1.1c1.3,3-2.4,5.1-4.4,7.2
	c-21.7,23.6-61.8,22-82.4-3.2c-1.6-1.9-3.1-4-5-5.5c-4-3.2-9.4-2.8-13.2,0.8c-3.7,3.5-4,7.3-0.5,12C65.3,187,85.7,197.9,111,199
	c29.3-1.1,51.3-13.9,65.7-39.2c2.6-4.7,5.6-6.3,10.6-6.1c3.1,0.2,7.3,1.7,9.2-1.8c1.9-3.5-1.7-6.1-3.3-8.8
	c-6.2-10-12.6-20-19.1-29.9C170.9,108.3,168.9,108.3,165.7,113.2z"/>
</svg>
