<?xml version="1.0" encoding="utf-8"?>
<!-- Generator: Adobe Illustrator 23.0.3, SVG Export Plug-In . SVG Version: 6.00 Build 0)  -->
<svg version="1.1" id="Capa_1" xmlns="http://www.w3.org/2000/svg" xmlns:xlink="http://www.w3.org/1999/xlink" x="0px" y="0px"
	 viewBox="0 0 402.3 282.4" style="enable-background:new 0 0 402.3 282.4;" xml:space="preserve">
<g>
	<g>
		<circle class="st0" cx="152" cy="102.1" r="14.3"/>
		<circle class="st0" cx="212.1" cy="208.7" r="10"/>
		<circle class="st0" cx="328.6" cy="174.3" r="11.4"/>
		<circle class="st0" cx="145.6" cy="236.5" r="11.4"/>
		<circle class="st0" cx="76.9" cy="238" r="11.4"/>
		<circle class="st0" cx="144.9" cy="180.8" r="20"/>
		<circle class="st0" cx="172.7" cy="142.9" r="20"/>
		<circle class="st0" cx="238.5" cy="97.1" r="15.7"/>
		<circle class="st0" cx="227.8" cy="174.3" r="18.6"/>
		<circle class="st0" cx="299.3" cy="142.9" r="18.6"/>
		<circle class="st0" cx="263.6" cy="168.6" r="12.9"/>
		<circle class="st0" cx="179.2" cy="79.9" r="12.9"/>
		<circle class="st0" cx="373.7" cy="227.2" r="18.6"/>
		<circle class="st0" cx="85.5" cy="188.6" r="26.5"/>
	</g>
	<g>
		<circle class="st1" cx="213.5" cy="64.2" r="14.3"/>
		<circle class="st1" cx="119.1" cy="140" r="20"/>
		<circle class="st1" cx="228.5" cy="135.7" r="16.4"/>
		<circle class="st1" cx="185.6" cy="236.5" r="15.7"/>
		<circle class="st1" cx="112" cy="236.5" r="15.7"/>
		<circle class="st1" cx="185.6" cy="180.8" r="15.7"/>
		<circle class="st1" cx="44" cy="207.9" r="11.4"/>
	</g>
	<g>
		<g>
			<circle class="st2" cx="131.3" cy="210.8" r="9.3"/>
			<circle class="st2" cx="164.2" cy="207.9" r="9.3"/>
			<circle class="st2" cx="218.5" cy="238" r="9.3"/>
			<circle class="st2" cx="193.5" cy="28.5" r="9.3"/>
			<circle class="st2" cx="349.4" cy="198.6" r="9.3"/>
			<circle class="st2" cx="124.8" cy="108.5" r="7.9"/>
			<circle class="st2" cx="293.6" cy="185.8" r="7.9"/>
			<circle class="st2" cx="201.3" cy="108.5" r="17.2"/>
			<circle class="st2" cx="266.4" cy="126.4" r="17.2"/>
			<circle class="st2" cx="172.7" cy="49.9" r="11.4"/>
			<circle class="st2" cx="259.3" cy="220.8" r="26.5"/>
			<circle class="st2" cx="320" cy="221.5" r="26.5"/>
			<circle class="st2" cx="29" cy="239.4" r="20"/>
		</g>
	</g>
</g>
</svg>
